<svg width="17" height="17" viewBox="0 0 17 17" fill="none" xmlns="http://www.w3.org/2000/svg">
<path fill-rule="evenodd" clip-rule="evenodd" d="M8.26917 1.83333C4.58716 1.83333 1.6025 4.818 1.6025 8.5C1.6025 12.182 4.58716 15.1667 8.26917 15.1667C11.9512 15.1667 14.9358 12.182 14.9358 8.5C14.9358 4.818 11.9512 1.83333 8.26917 1.83333ZM8.26917 16.5C3.84983 16.5 0.269165 12.9193 0.269165 8.5C0.269165 4.08067 3.84983 0.5 8.26917 0.5C12.6885 0.5 16.2692 4.08067 16.2692 8.5C16.2692 12.9193 12.6885 16.5 8.26917 16.5Z" fill="#0961F5"/>
<path fill-rule="evenodd" clip-rule="evenodd" d="M11.6025 12.1667C11.4385 12.1667 11.2772 12.104 11.1545 11.992L7.82121 8.992C7.68321 8.86733 7.60254 8.68733 7.60254 8.5V5.16667C7.60254 4.79933 7.90187 4.5 8.26921 4.5C8.63654 4.5 8.93587 4.79933 8.93587 5.16667V8.20067L12.0505 11C12.2585 11.1847 12.3292 11.4793 12.2299 11.7393C12.1312 11.9973 11.8812 12.1693 11.6025 12.1667Z" fill="#0961F5"/>
</svg>
