<svg width="28" height="29" viewBox="0 0 28 29" fill="none" xmlns="http://www.w3.org/2000/svg">
<path fill-rule="evenodd" clip-rule="evenodd" d="M28 14.5C28 22.2338 21.7338 28.5 14 28.5C6.26617 28.5 0 22.2338 0 14.5C0 6.76617 6.26617 0.5 14 0.5C21.7338 0.5 28 6.76617 28 14.5Z" fill="#50B748"/>
<path fill-rule="evenodd" clip-rule="evenodd" d="M16.9439 28.1718C17.2122 28.117 17.4817 28.0575 17.7454 27.9898C18.1969 27.8662 18.639 27.7157 19.0719 27.5477C19.5094 27.3785 19.934 27.1872 20.3482 26.9783C20.767 26.7637 21.173 26.5315 21.565 26.2807C21.957 26.0298 22.335 25.7568 22.7037 25.4652C23.0689 25.1782 23.42 24.8678 23.7525 24.54C24.0897 24.2157 24.4082 23.8738 24.7092 23.5192C25.0102 23.1633 25.2925 22.79 25.5527 22.4027C25.8164 22.02 26.0625 21.6233 26.2865 21.2127C26.5094 20.8032 26.7147 20.3832 26.8967 19.955C27.0799 19.5222 27.2385 19.0847 27.375 18.6378C27.494 18.2458 27.5944 17.8538 27.6807 17.4525L19.3589 9.13532C17.9414 7.70966 16.014 6.91166 14.0039 6.91166C11.989 6.90699 10.0582 7.70966 8.63485 9.13532C7.21502 10.5575 6.41235 12.4848 6.41235 14.4997C6.41235 16.5098 7.21502 18.4418 8.63485 19.864L16.9439 28.1672V28.1718Z" fill="#10A711"/>
<path fill-rule="evenodd" clip-rule="evenodd" d="M17.4544 12.1667C17.3447 12.176 17.2397 12.2168 17.1487 12.2857L12.888 15.4847L10.914 13.506C10.4859 13.065 9.64353 13.9027 10.0892 14.3308L12.4225 16.6642C12.6279 16.8648 12.9475 16.8882 13.1844 16.719L17.851 13.219C18.243 12.9367 18.0015 12.176 17.5139 12.1667H17.4544ZM13.9999 6.912C15.9412 6.912 17.8779 7.65517 19.3642 9.13567C20.7852 10.5578 21.5879 12.4852 21.5879 14.5C21.5879 16.5148 20.7852 18.4422 19.3642 19.8643C17.942 21.2853 16.0147 22.088 13.9999 22.088C11.985 22.088 10.0577 21.2853 8.63553 19.8643C7.21453 18.4422 6.41187 16.5148 6.41187 14.5C6.41187 12.4852 7.21453 10.5578 8.63553 9.13567C10.0577 7.71 11.9897 6.912 13.9999 6.912Z" fill="white"/>
</svg>
