<svg width="169" height="168" viewBox="0 0 169 168" fill="none" xmlns="http://www.w3.org/2000/svg">
<rect x="0.5" width="168" height="168" rx="84" fill="white"/>
<g clip-path="url(#clip0_461_3150)">
<path d="M73.9996 105.569C74.3388 105.567 74.3388 105.567 74.6849 105.566C75.3116 105.563 75.9382 105.564 76.5649 105.567C77.2412 105.568 77.9175 105.566 78.5937 105.564C79.9181 105.561 81.2425 105.561 82.5669 105.563C83.6432 105.565 84.7195 105.565 85.7958 105.564C86.0256 105.564 86.0256 105.564 86.2599 105.564C86.5711 105.564 86.8822 105.564 87.1934 105.563C90.1112 105.561 93.0291 105.564 95.9469 105.567C98.4508 105.57 100.955 105.57 103.459 105.567C106.366 105.563 109.273 105.562 112.181 105.564C112.491 105.564 112.801 105.564 113.111 105.564C113.263 105.565 113.416 105.565 113.573 105.565C114.648 105.565 115.723 105.564 116.798 105.563C118.108 105.561 119.418 105.561 120.728 105.565C121.397 105.567 122.065 105.567 122.734 105.565C123.458 105.563 124.183 105.566 124.907 105.569C125.224 105.567 125.224 105.567 125.548 105.564C127.359 105.581 127.359 105.581 128.156 106.344C128.479 106.816 128.544 107.187 128.547 107.753C128.549 107.896 128.551 108.038 128.552 108.185C128.553 108.34 128.553 108.495 128.553 108.655C128.554 108.819 128.556 108.984 128.557 109.153C128.561 109.697 128.563 110.241 128.564 110.784C128.566 111.162 128.567 111.541 128.569 111.919C128.571 112.711 128.573 113.504 128.573 114.296C128.574 115.312 128.581 116.327 128.589 117.342C128.594 118.123 128.595 118.904 128.595 119.685C128.596 120.059 128.598 120.434 128.602 120.808C128.606 121.332 128.605 121.855 128.603 122.379C128.607 122.61 128.607 122.61 128.611 122.847C128.603 123.563 128.563 124.067 128.118 124.645C127.393 125.303 126.793 125.465 125.826 125.466C125.539 125.468 125.539 125.468 125.246 125.47C124.933 125.469 124.933 125.469 124.612 125.468C124.389 125.469 124.166 125.47 123.937 125.47C123.318 125.472 122.7 125.472 122.081 125.472C121.414 125.472 120.747 125.474 120.079 125.475C118.772 125.478 117.465 125.479 116.158 125.479C115.095 125.48 114.033 125.48 112.97 125.481C109.958 125.484 106.945 125.486 103.933 125.486C103.77 125.486 103.608 125.486 103.44 125.486C103.278 125.486 103.115 125.486 102.948 125.486C100.312 125.486 97.677 125.489 95.0417 125.494C92.3358 125.499 89.6299 125.501 86.9239 125.501C85.4048 125.501 83.8856 125.502 82.3664 125.505C81.0729 125.508 79.7795 125.509 78.486 125.507C77.8262 125.506 77.1664 125.506 76.5066 125.509C75.7909 125.512 75.0754 125.51 74.3597 125.507C74.1516 125.509 73.9436 125.511 73.7292 125.512C72.5432 125.503 71.7537 125.385 70.7502 124.735C70.242 124.01 70.1788 123.45 70.2131 122.579C70.4095 119.995 70.4095 119.995 69.4274 117.738C69.0308 117.394 68.6178 117.104 68.1721 116.828C67.165 116.069 67.165 116.069 67.0488 115.588C67.1917 114.845 67.6767 114.476 68.215 113.971C68.3158 113.872 68.4166 113.774 68.5205 113.673C69.2998 112.92 69.2998 112.92 69.7483 112.655C70.1122 112.373 70.1122 112.373 70.1483 111.86C70.1486 111.66 70.149 111.461 70.1493 111.255C70.1525 111.037 70.1557 110.818 70.159 110.593C70.1594 110.362 70.1596 110.131 70.1594 109.9C70.1609 109.449 70.1646 108.999 70.1708 108.548C70.1709 108.348 70.171 108.148 70.1712 107.942C70.2669 107.086 70.5148 106.563 71.1471 105.975C72.0016 105.435 73.0249 105.562 73.9996 105.569Z" fill="#E8ECF1"/>
<path d="M74.3584 42.492C74.6939 42.4905 74.6939 42.4905 75.0361 42.4891C75.6542 42.4865 76.2722 42.4883 76.8903 42.4907C77.5579 42.4927 78.2255 42.4906 78.8931 42.4891C80.1997 42.4867 81.5063 42.488 82.813 42.4905C84.3348 42.4934 85.8566 42.4929 87.3784 42.4922C90.0935 42.4912 92.8086 42.4937 95.5238 42.4979C98.1583 42.502 100.793 42.5032 103.427 42.5014C106.297 42.4995 109.166 42.4991 112.036 42.5016C112.342 42.5019 112.648 42.5021 112.954 42.5024C113.179 42.5026 113.179 42.5026 113.41 42.5028C114.471 42.5036 115.531 42.5033 116.592 42.5026C117.885 42.5017 119.177 42.5028 120.47 42.5062C121.129 42.5079 121.788 42.5087 122.448 42.5074C123.162 42.5059 123.877 42.5085 124.592 42.5115C124.8 42.5104 125.009 42.5094 125.224 42.5083C126.451 42.5176 127.269 42.6093 128.215 43.4528C128.624 44.1705 128.595 44.7862 128.586 45.599C128.588 45.8461 128.588 45.8461 128.589 46.0981C128.591 46.6418 128.588 47.1853 128.585 47.729C128.585 48.1072 128.586 48.4854 128.586 48.8636C128.586 49.656 128.584 50.4482 128.58 51.2406C128.575 52.2561 128.576 53.2715 128.578 54.287C128.579 55.0679 128.578 55.8487 128.576 56.6296C128.575 57.004 128.575 57.3785 128.576 57.7529C128.576 58.2763 128.573 58.7995 128.569 59.3228C128.571 59.5548 128.571 59.5548 128.572 59.7915C128.562 60.605 128.536 61.1836 127.984 61.8281C127.355 62.2756 126.926 62.4083 126.158 62.4091C125.964 62.4105 125.77 62.412 125.57 62.4135C125.358 62.4125 125.146 62.4114 124.928 62.4104C124.702 62.4113 124.476 62.4122 124.243 62.4132C123.616 62.4157 122.989 62.4149 122.361 62.4137C121.685 62.4128 121.009 62.415 120.332 62.4167C119.007 62.4197 117.682 62.4198 116.357 62.4189C115.281 62.4183 114.204 62.4185 113.127 62.4194C112.974 62.4195 112.821 62.4197 112.663 62.4198C112.352 62.4201 112.04 62.4203 111.729 62.4206C108.81 62.423 105.891 62.422 102.972 62.4201C100.301 62.4183 97.6299 62.4206 94.9588 62.4247C92.2167 62.4289 89.4747 62.4305 86.7326 62.4294C85.1929 62.4288 83.6532 62.4292 82.1135 62.4322C80.8028 62.4347 79.4921 62.4348 78.1813 62.4318C77.5125 62.4304 76.8437 62.43 76.1749 62.4326C75.4501 62.4354 74.7254 62.4329 74.0006 62.4299C73.6829 62.4323 73.6829 62.4323 73.3589 62.4349C72.2725 62.4254 71.5631 62.4118 70.75 61.6562C70.263 60.916 70.1795 60.3756 70.219 59.5004C70.4088 57.0947 70.4088 57.0947 69.6241 54.9229C69.1395 54.4447 68.5804 54.1035 68 53.75C67.1614 53.0428 67.1614 53.0428 67.0835 52.4708C67.1539 51.9296 67.2896 51.7914 67.6925 51.433C67.8073 51.3288 67.9221 51.2245 68.0403 51.1171C68.1617 51.0111 68.2831 50.9051 68.4082 50.7959C68.5283 50.6879 68.6484 50.5799 68.7721 50.4686C68.9948 50.2684 69.2184 50.0692 69.4431 49.8712C69.9592 49.4401 69.9592 49.4401 70.1091 48.801C70.1113 48.6006 70.1134 48.4001 70.1156 48.1936C70.1199 47.9745 70.1242 47.7553 70.1287 47.5296C70.1336 47.1815 70.1377 46.8334 70.1409 46.4853C70.1447 46.1488 70.1516 45.8123 70.1585 45.4758C70.1608 45.2746 70.1632 45.0733 70.1655 44.866C70.2463 44.1981 70.3631 43.819 70.75 43.2656C71.9399 42.4948 72.9655 42.4809 74.3584 42.492Z" fill="#E7ECF2"/>
<path d="M42.6334 74.1587C42.9249 74.1568 42.9249 74.1568 43.2224 74.155C43.4369 74.1554 43.6513 74.1558 43.8723 74.1562C44.1017 74.1555 44.3311 74.1546 44.5605 74.1535C45.1923 74.1511 45.8241 74.1508 46.4558 74.1509C47.1367 74.1506 47.8175 74.1483 48.4984 74.1464C49.9877 74.1424 51.477 74.1411 52.9664 74.1402C53.896 74.1396 54.8256 74.1385 55.7553 74.1373C58.3283 74.1339 60.9013 74.1311 63.4743 74.1306C63.639 74.1306 63.8037 74.1305 63.9735 74.1305C64.3074 74.1304 64.6413 74.1304 64.9753 74.1303C65.1411 74.1303 65.3068 74.1302 65.4776 74.1302C65.6436 74.1302 65.8096 74.1302 65.9806 74.1301C68.6707 74.1295 71.3607 74.1249 74.0508 74.1184C76.8114 74.1119 79.5721 74.1086 82.3328 74.1085C83.8833 74.1084 85.4338 74.1069 86.9842 74.102C88.3044 74.0978 89.6245 74.0965 90.9447 74.0991C91.6184 74.1003 92.2921 74.1002 92.9658 74.0963C93.5826 74.0928 94.1992 74.0932 94.8159 74.0968C95.1448 74.0977 95.4736 74.0943 95.8024 74.0908C97.3986 74.1065 97.3986 74.1065 98.0311 74.619C98.7108 75.3908 98.806 75.7935 98.7522 76.8231C98.5777 79.576 98.5777 79.576 99.7843 81.919C100.196 82.2853 100.612 82.6293 101.067 82.9405C101.368 83.1585 101.618 83.3737 101.859 83.6565C101.892 84.1291 101.892 84.1291 101.687 84.6877C101.392 84.9997 101.08 85.2643 100.742 85.5296C100.6 85.6488 100.458 85.768 100.312 85.8909C100.139 86.018 100.139 86.018 99.9626 86.1477C99.3472 86.6574 98.9861 87.0296 98.822 87.8276C98.7884 88.4817 98.7896 89.1248 98.8086 89.7795C98.8507 92.2741 98.8507 92.2741 98.4622 92.888C97.6056 93.7655 97.6056 93.7655 96.9492 93.8619C96.7807 93.8621 96.6123 93.8623 96.4387 93.8625C96.1465 93.8646 96.1465 93.8646 95.8484 93.8669C95.6343 93.8658 95.4202 93.8648 95.1996 93.8637C94.9699 93.8645 94.7403 93.8654 94.5106 93.8665C93.8789 93.869 93.2472 93.8683 92.6154 93.867C91.9344 93.8662 91.2533 93.8684 90.5722 93.8701C89.2378 93.8731 87.9033 93.8732 86.5688 93.8723C85.4843 93.8716 84.3999 93.8719 83.3155 93.8728C83.1613 93.8729 83.007 93.8731 82.8482 93.8732C82.5349 93.8734 82.2216 93.8737 81.9084 93.874C78.9692 93.8763 76.0301 93.8754 73.0909 93.8734C70.4007 93.8717 67.7106 93.8739 65.0204 93.8781C62.2595 93.8822 59.4987 93.8839 56.7378 93.8828C55.1872 93.8822 53.6366 93.8825 52.0861 93.8856C50.7661 93.8881 49.4461 93.8882 48.1262 93.8852C47.4525 93.8837 46.7788 93.8834 46.1052 93.886C45.4886 93.8884 44.8722 93.8876 44.2557 93.8842C43.9266 93.8833 43.5975 93.8857 43.2684 93.8883C43.0731 93.8866 42.8778 93.8849 42.6766 93.8831C42.5082 93.8831 42.3397 93.8831 42.1661 93.8831C41.5667 93.7718 41.2819 93.5256 40.8438 93.1096C40.493 92.5835 40.4568 92.4776 40.454 91.8853C40.4526 91.7412 40.4511 91.5971 40.4496 91.4486C40.4498 91.2911 40.4499 91.1336 40.4501 90.9713C40.4489 90.805 40.4478 90.6387 40.4466 90.4673C40.4433 89.9162 40.4426 89.3652 40.4423 88.8141C40.4412 88.4315 40.44 88.049 40.4388 87.6664C40.4367 86.8639 40.4361 86.0615 40.4363 85.259C40.4363 84.2304 40.4316 83.2019 40.4257 82.1733C40.4219 81.3829 40.4212 80.5926 40.4214 79.8023C40.421 79.4231 40.4195 79.0439 40.4168 78.6646C40.4134 78.1342 40.4144 77.604 40.4165 77.0736C40.4146 76.9168 40.4126 76.76 40.4106 76.5984C40.4177 75.8909 40.4376 75.5074 40.8167 74.8941C41.4413 74.3096 41.7937 74.1603 42.6334 74.1587Z" fill="#E8ECF1"/>
<path d="M93.4373 74.203C94.0746 74.1779 94.7117 74.1627 95.3494 74.1492C95.5293 74.142 95.7092 74.1348 95.8945 74.1274C97.3955 74.1037 97.3955 74.1037 98.0121 74.593C98.7001 75.3814 98.8067 75.7745 98.752 76.8227C98.5775 79.5756 98.5775 79.5756 99.7841 81.9186C100.196 82.2849 100.612 82.6289 101.067 82.9401C101.368 83.1581 101.617 83.3733 101.859 83.6561C101.891 84.1287 101.891 84.1287 101.687 84.6873C101.391 84.9993 101.079 85.2639 100.741 85.5293C100.6 85.6485 100.458 85.7677 100.312 85.8905C100.139 86.0176 100.139 86.0176 99.9624 86.1474C99.347 86.657 98.9859 87.0292 98.8218 87.8272C98.7882 88.4813 98.7894 89.1244 98.8084 89.7791C98.8505 92.2737 98.8505 92.2737 98.4619 92.8877C97.6054 93.7651 97.6054 93.7651 96.9489 93.8615C96.7805 93.8617 96.6121 93.8619 96.4385 93.8621C96.1463 93.8643 96.1463 93.8643 95.8481 93.8665C95.6341 93.8654 95.42 93.8644 95.1994 93.8633C94.9697 93.8641 94.74 93.865 94.5103 93.8661C93.8786 93.8686 93.2469 93.8679 92.6152 93.8666C91.9341 93.8658 91.2531 93.868 90.572 93.8697C89.2375 93.8727 87.903 93.8728 86.5686 93.8719C85.4841 93.8712 84.3997 93.8715 83.3152 93.8724C83.161 93.8725 83.0068 93.8727 82.8479 93.8728C82.5347 93.8731 82.2214 93.8733 81.9082 93.8736C78.969 93.8759 76.0298 93.875 73.0907 93.873C70.4005 93.8713 67.7104 93.8736 65.0202 93.8777C62.2593 93.8819 59.4984 93.8835 56.7376 93.8824C55.187 93.8818 53.6364 93.8822 52.0858 93.8852C50.7659 93.8877 49.4459 93.8878 48.1259 93.8848C47.4523 93.8833 46.7786 93.883 46.1049 93.8856C45.4884 93.888 44.872 93.8872 44.2555 93.8838C43.9264 93.8829 43.5972 93.8853 43.2681 93.8879C43.0729 93.8862 42.8776 93.8845 42.6764 93.8827C42.5079 93.8827 42.3395 93.8827 42.1659 93.8827C41.5664 93.7714 41.2817 93.5252 40.8435 93.1092C40.4541 92.525 40.459 92.3249 40.4662 91.6409C40.4673 91.4564 40.4684 91.272 40.4696 91.082C40.4739 90.7933 40.4739 90.7933 40.4783 90.4989C40.4798 90.3044 40.4814 90.11 40.483 89.9097C40.487 89.4293 40.4927 88.949 40.4998 88.4686C40.6078 88.4684 40.7157 88.4683 40.827 88.4681C47.2253 88.4581 53.6237 88.4454 60.022 88.4292C60.79 88.4273 61.5581 88.4254 62.3261 88.4235C62.5555 88.4229 62.5555 88.4229 62.7895 88.4223C65.2662 88.4162 67.7429 88.412 70.2196 88.4084C72.7604 88.4046 75.3012 88.399 77.842 88.3915C79.4101 88.3869 80.9782 88.3839 82.5464 88.3828C83.6214 88.3819 84.6963 88.3791 85.7712 88.3748C86.3917 88.3724 87.0121 88.3708 87.6325 88.3715C88.305 88.3722 88.9775 88.3689 89.65 88.3652C89.9445 88.3665 89.9445 88.3665 90.2449 88.3678C91.1969 88.3592 91.9445 88.3524 92.7498 87.7811C93.2259 86.9503 93.3314 86.2532 93.3397 85.3054C93.3415 85.1845 93.3432 85.0636 93.345 84.9391C93.3502 84.5439 93.3518 84.1487 93.3533 83.7534C93.3562 83.4777 93.3594 83.202 93.3627 82.9262C93.3708 82.2038 93.376 81.4813 93.3805 80.7588C93.3856 80.0202 93.3936 79.2817 93.4014 78.5431C93.4161 77.0964 93.4277 75.6497 93.4373 74.203Z" fill="#D9E7EC"/>
<path d="M123.172 105.656C123.809 105.636 124.446 105.624 125.084 105.613C125.264 105.607 125.444 105.602 125.629 105.596C126.696 105.582 127.362 105.599 128.156 106.344C128.449 106.829 128.544 107.189 128.547 107.753C128.549 107.895 128.551 108.038 128.552 108.185C128.552 108.34 128.553 108.495 128.553 108.655C128.554 108.819 128.556 108.984 128.557 109.153C128.561 109.697 128.563 110.24 128.564 110.784C128.565 111.162 128.567 111.54 128.569 111.918C128.571 112.711 128.573 113.504 128.573 114.296C128.574 115.312 128.581 116.327 128.588 117.342C128.594 118.123 128.595 118.904 128.595 119.685C128.596 120.059 128.598 120.433 128.601 120.808C128.606 121.331 128.605 121.855 128.603 122.379C128.607 122.61 128.607 122.61 128.611 122.846C128.602 123.563 128.563 124.066 128.118 124.645C127.393 125.303 126.792 125.465 125.826 125.466C125.539 125.468 125.539 125.468 125.246 125.469C124.932 125.469 124.932 125.469 124.612 125.468C124.389 125.469 124.166 125.469 123.937 125.47C123.318 125.472 122.699 125.472 122.081 125.472C121.414 125.472 120.746 125.474 120.079 125.475C118.772 125.478 117.465 125.479 116.158 125.479C115.095 125.479 114.033 125.48 112.97 125.481C109.957 125.484 106.945 125.486 103.932 125.486C103.77 125.485 103.608 125.485 103.44 125.485C103.278 125.485 103.115 125.485 102.948 125.485C100.312 125.485 97.6769 125.489 95.0416 125.493C92.3356 125.498 89.6297 125.501 86.9238 125.5C85.4046 125.5 83.8854 125.501 82.3663 125.505C81.0728 125.508 79.7793 125.509 78.4859 125.507C77.826 125.505 77.1663 125.505 76.5064 125.508C75.7908 125.512 75.0752 125.509 74.3596 125.507C74.1515 125.509 73.9434 125.51 73.729 125.512C72.6127 125.503 71.6476 125.458 70.75 124.734C70.0551 123.847 70.1751 122.823 70.2022 121.748C70.2057 121.484 70.2057 121.484 70.2092 121.216C70.2153 120.784 70.2237 120.353 70.2344 119.922C70.3975 119.922 70.3975 119.922 70.5639 119.922C77.0053 119.919 83.4466 119.913 89.888 119.9C90.6612 119.898 91.4344 119.897 92.2076 119.896C92.3616 119.895 92.5155 119.895 92.6741 119.895C95.1675 119.89 97.6608 119.889 100.154 119.888C102.712 119.888 105.27 119.884 107.828 119.877C109.407 119.873 110.985 119.871 112.564 119.873C113.646 119.874 114.728 119.872 115.811 119.867C116.435 119.864 117.06 119.863 117.684 119.866C118.361 119.868 119.038 119.864 119.715 119.86C119.913 119.862 120.111 119.863 120.314 119.865C121.452 119.861 121.452 119.861 122.432 119.346C123.056 118.629 123.024 118.071 123.035 117.149C123.037 117.025 123.039 116.901 123.04 116.773C123.046 116.363 123.05 115.952 123.054 115.542C123.058 115.258 123.062 114.973 123.065 114.689C123.075 113.941 123.083 113.192 123.092 112.444C123.1 111.68 123.11 110.916 123.119 110.152C123.138 108.653 123.155 107.155 123.172 105.656Z" fill="#D9E7EC"/>
<path d="M125.009 42.5352C125.241 42.5299 125.241 42.5299 125.477 42.5245C126.594 42.5179 127.339 42.6459 128.179 43.4399C128.632 44.164 128.595 44.7609 128.586 45.5991C128.588 45.8462 128.588 45.8462 128.589 46.0982C128.591 46.6419 128.589 47.1854 128.585 47.7291C128.585 48.1073 128.586 48.4855 128.586 48.8637C128.586 49.656 128.584 50.4483 128.58 51.2407C128.575 52.2562 128.576 53.2716 128.578 54.2871C128.579 55.068 128.578 55.8488 128.576 56.6297C128.575 57.0041 128.575 57.3786 128.576 57.753C128.576 58.2764 128.573 58.7996 128.57 59.3229C128.571 59.5549 128.571 59.5549 128.572 59.7916C128.562 60.6051 128.536 61.1837 127.985 61.8282C127.355 62.2757 126.927 62.4084 126.158 62.4092C125.964 62.4106 125.77 62.4121 125.571 62.4136C125.358 62.4125 125.146 62.4115 124.928 62.4105C124.702 62.4114 124.476 62.4123 124.243 62.4133C123.616 62.4157 122.989 62.415 122.362 62.4137C121.685 62.4129 121.009 62.4151 120.332 62.4168C119.007 62.4198 117.682 62.4199 116.358 62.419C115.281 62.4183 114.204 62.4186 113.127 62.4195C112.974 62.4196 112.821 62.4198 112.663 62.4199C112.352 62.4202 112.041 62.4204 111.729 62.4207C108.81 62.4231 105.891 62.4221 102.972 62.4201C100.301 62.4184 97.63 62.4207 94.9589 62.4248C92.2169 62.429 89.4748 62.4306 86.7328 62.4295C85.193 62.4289 83.6533 62.4293 82.1136 62.4323C80.8029 62.4348 79.4922 62.4349 78.1815 62.4319C77.5126 62.4304 76.8438 62.4301 76.175 62.4327C75.4502 62.4355 74.7255 62.433 74.0007 62.43C73.6831 62.4324 73.6831 62.4324 73.359 62.435C71.5249 62.419 71.5249 62.419 70.7502 61.6563C70.0941 60.7514 70.174 59.8268 70.2023 58.7559C70.2046 58.5884 70.207 58.4209 70.2093 58.2484C70.2154 57.8374 70.2239 57.4266 70.2345 57.0157C70.3425 57.0155 70.4505 57.0154 70.5618 57.0152C76.9601 57.0052 83.3584 56.9925 89.7568 56.9763C90.5248 56.9744 91.2928 56.9725 92.0609 56.9706C92.2902 56.97 92.2902 56.97 92.5242 56.9694C95.0009 56.9634 97.4776 56.9591 99.9543 56.9555C102.495 56.9517 105.036 56.9461 107.577 56.9386C109.145 56.934 110.713 56.931 112.281 56.9299C113.356 56.929 114.431 56.9262 115.506 56.9219C116.126 56.9195 116.747 56.9179 117.367 56.9186C118.04 56.9193 118.712 56.916 119.385 56.9124C119.679 56.9136 119.679 56.9136 119.98 56.9149C120.938 56.9062 121.665 56.8877 122.485 56.3282C123.048 55.6491 123.066 55.0716 123.072 54.2064C123.073 54.0825 123.075 53.9586 123.076 53.831C123.081 53.4235 123.081 53.0162 123.082 52.6087C123.085 52.3252 123.087 52.0417 123.09 51.7582C123.097 51.0134 123.102 50.2687 123.105 49.5239C123.111 48.3294 123.122 47.1349 123.132 45.9404C123.136 45.5225 123.138 45.1046 123.14 44.6867C123.141 44.4323 123.143 44.1779 123.145 43.9235C123.146 43.7005 123.147 43.4775 123.148 43.2478C123.198 42.2145 124.173 42.5399 125.009 42.5352Z" fill="#D9E7EC"/>
<path d="M124.79 75.6909C126.753 77.2867 128.058 79.6306 128.5 82.1093C128.788 85.3247 128.295 87.8634 126.437 90.5312C126.31 90.7156 126.182 90.8999 126.051 91.0898C123.99 93.1506 121.433 94.4961 118.498 94.5497C115.285 94.5428 112.736 93.6463 110.407 91.3658C108.347 89.2118 107.46 86.6202 107.48 83.6733C107.556 80.8387 108.663 78.3653 110.656 76.373C114.716 72.5937 120.36 72.6519 124.79 75.6909Z" fill="#FDA1A6"/>
<path d="M56.9999 43.7812C59.4709 45.697 61.0184 48.0585 61.4686 51.1719C61.7149 54.1361 61.0065 56.8573 59.1846 59.2513C57.487 61.2291 54.9911 62.7406 52.3592 63.0312C49.5269 63.2338 46.7904 62.7608 44.5134 60.9506C44.0763 60.5693 43.661 60.1747 43.2499 59.7656C43.1402 59.6619 43.0305 59.5582 42.9175 59.4514C40.9596 57.4455 40.4221 54.7039 40.4253 52.0082C40.4691 49.7208 41.1881 47.8519 42.5624 46.0156C42.6607 45.8818 42.7591 45.748 42.8605 45.6101C46.2378 41.4245 52.6523 40.8764 56.9999 43.7812Z" fill="#25A5FD"/>
<path d="M57.7193 107.259C59.7994 109.05 61.0539 111.366 61.469 114.078C61.643 117.103 61.102 119.946 59.0778 122.31C57.3592 124.204 55.0569 125.743 52.4496 125.975C49.07 126.123 46.4036 125.562 43.7336 123.348C41.683 121.4 40.5014 118.86 40.408 116.038C40.3936 114.363 40.4906 112.872 41.1877 111.328C41.2606 111.165 41.3335 111.002 41.4086 110.834C42.0108 109.625 42.8162 108.672 43.7658 107.719C43.8589 107.622 43.952 107.524 44.0478 107.424C47.8127 103.831 53.77 104.375 57.7193 107.259Z" fill="#FFE076"/>
<path d="M49.7941 82.7313C49.9372 82.7299 50.0803 82.7284 50.2277 82.727C50.3849 82.728 50.5421 82.729 50.7041 82.7301C50.9546 82.7287 50.9546 82.7287 51.2101 82.7273C51.7723 82.7248 52.3343 82.726 52.8964 82.7273C53.2984 82.7263 53.7004 82.7251 54.1024 82.7237C55.1961 82.7206 56.2898 82.7208 57.3836 82.7218C58.4108 82.7224 59.438 82.721 60.4652 82.7198C62.6238 82.7175 64.7825 82.7184 66.9412 82.7204C68.9168 82.7221 70.8925 82.7199 72.8681 82.7158C74.8958 82.7116 76.9235 82.7099 78.9512 82.7111C80.0899 82.7117 81.2286 82.7112 82.3674 82.7083C83.438 82.7056 84.5086 82.7063 85.5792 82.7095C85.9727 82.7102 86.3663 82.7096 86.7598 82.7078C87.2959 82.7056 87.8318 82.7075 88.3678 82.7106C88.6031 82.7081 88.6031 82.7081 88.843 82.7056C89.8904 82.7179 89.8904 82.7179 90.4404 83.1136C90.7794 83.622 90.7873 83.9164 90.6875 84.5155C90.3666 84.9112 90.1106 85.1477 89.6562 85.3748C89.1342 85.3929 88.616 85.4002 88.0938 85.4001C87.9299 85.4008 87.766 85.4014 87.5971 85.402C87.0444 85.404 86.4916 85.4046 85.9389 85.4053C85.544 85.4063 85.1491 85.4075 84.7542 85.4087C83.6789 85.4117 82.6036 85.4135 81.5284 85.4149C80.8571 85.4158 80.1859 85.4168 79.5147 85.4179C77.6567 85.4208 75.7988 85.4233 73.9409 85.4246C73.4587 85.4249 72.9765 85.4252 72.4942 85.4256C72.3144 85.4257 72.3144 85.4257 72.131 85.4258C70.1888 85.4272 68.2466 85.4316 66.3045 85.4372C64.3112 85.4429 62.3179 85.4459 60.3245 85.4465C59.2051 85.4469 58.0857 85.4485 56.9662 85.4528C55.9134 85.4568 54.8606 85.4575 53.8077 85.4557C53.4209 85.4557 53.0341 85.4568 52.6473 85.4591C52.1199 85.4621 51.5927 85.4609 51.0654 85.4587C50.8348 85.4615 50.8348 85.4615 50.5995 85.4644C49.8898 85.457 49.528 85.4312 48.9124 85.0477C48.5781 84.6873 48.5781 84.6873 48.4761 84.3375C48.5198 83.391 48.5198 83.391 48.7975 83.0163C49.16 82.7476 49.3461 82.732 49.7941 82.7313Z" fill="#FC6772"/>
<path d="M91.0545 51.0845C91.2368 51.0828 91.2368 51.0828 91.4229 51.0812C91.8291 51.0785 92.2353 51.0806 92.6416 51.0828C92.9333 51.0819 93.2249 51.0806 93.5166 51.0791C94.3082 51.076 95.0996 51.0772 95.8912 51.0794C96.7196 51.0811 97.5479 51.0795 98.3763 51.0784C99.7674 51.0772 101.159 51.0788 102.55 51.0821C104.158 51.0859 105.766 51.0847 107.374 51.0809C108.755 51.0777 110.136 51.0773 111.517 51.0791C112.342 51.0802 113.166 51.0803 113.991 51.078C114.767 51.0761 115.542 51.0774 116.317 51.0814C116.602 51.0823 116.886 51.0821 117.171 51.0805C117.559 51.0787 117.948 51.081 118.336 51.0845C118.553 51.0847 118.771 51.085 118.995 51.0852C119.663 51.187 119.949 51.3858 120.422 51.8593C120.581 52.3737 120.501 52.6825 120.422 53.2343C120.02 53.6687 119.773 53.7454 119.182 53.8152C118.962 53.8157 118.741 53.8161 118.514 53.8165C118.392 53.8174 118.269 53.8184 118.142 53.8193C117.73 53.8218 117.318 53.8205 116.906 53.8193C116.611 53.8203 116.316 53.8215 116.02 53.8229C115.218 53.826 114.416 53.8258 113.614 53.8248C112.944 53.8243 112.275 53.8253 111.606 53.8264C110.027 53.8288 108.448 53.8285 106.87 53.8265C105.24 53.8246 103.61 53.827 101.981 53.8316C100.582 53.8354 99.1835 53.8365 97.785 53.8355C96.9494 53.835 96.1138 53.8354 95.2783 53.8383C94.4928 53.841 93.7073 53.8403 92.9218 53.8371C92.6333 53.8364 92.3448 53.837 92.0563 53.8388C91.6628 53.841 91.2696 53.8391 90.8762 53.836C90.6559 53.836 90.4356 53.8359 90.2087 53.8359C89.6562 53.7499 89.6562 53.7499 89.2423 53.4383C88.9688 53.0624 88.9688 53.0624 88.8721 52.4608C88.9688 51.8593 88.9688 51.8593 89.3278 51.4834C89.9492 51.0963 90.3251 51.0853 91.0545 51.0845Z" fill="#29A7FD"/>
<path d="M80.181 114.163C80.3591 114.161 80.3591 114.161 80.5408 114.159C80.9385 114.157 81.3361 114.159 81.7338 114.161C82.019 114.16 82.3041 114.159 82.5893 114.157C83.3638 114.154 84.1382 114.155 84.9127 114.158C85.7228 114.159 86.5329 114.158 87.343 114.157C88.7035 114.155 90.064 114.157 91.4245 114.16C92.998 114.164 94.5713 114.163 96.1448 114.159C97.4951 114.156 98.8455 114.155 100.196 114.157C101.003 114.158 101.809 114.158 102.616 114.156C103.375 114.154 104.133 114.156 104.891 114.16C105.17 114.16 105.448 114.16 105.727 114.159C106.107 114.157 106.486 114.159 106.866 114.163C107.185 114.163 107.185 114.163 107.511 114.163C108.151 114.267 108.355 114.42 108.735 114.937C108.831 115.539 108.831 115.539 108.735 116.141C108.273 116.62 107.985 116.811 107.324 116.915C107.114 116.915 106.904 116.916 106.688 116.916C106.571 116.918 106.453 116.919 106.332 116.92C105.94 116.923 105.549 116.921 105.156 116.92C104.875 116.921 104.593 116.922 104.312 116.924C103.548 116.928 102.784 116.928 102.02 116.926C101.383 116.925 100.745 116.926 100.107 116.928C98.6029 116.931 97.0986 116.93 95.5943 116.927C94.0422 116.924 92.4902 116.927 90.9382 116.932C89.6055 116.937 88.2728 116.938 86.9401 116.937C86.1442 116.936 85.3483 116.936 84.5524 116.94C83.8041 116.943 83.0559 116.942 82.3077 116.938C82.0331 116.937 81.7585 116.938 81.4839 116.94C81.1089 116.942 80.7343 116.94 80.3594 116.936C80.1496 116.936 79.9398 116.936 79.7237 116.936C79.0136 116.797 78.7567 116.528 78.3127 115.969C78.2161 115.442 78.2161 115.442 78.3127 114.937C78.861 114.203 79.2885 114.164 80.181 114.163Z" fill="#FED15D"/>
<path d="M115.953 84.1721C116.617 84.7643 116.748 85.4002 116.984 86.2346C117.581 86.6326 117.831 86.6221 118.531 86.5784C118.701 86.5217 118.871 86.465 119.047 86.4065C119.205 85.9771 119.205 85.9771 119.305 85.4719C119.506 84.5537 119.506 84.5537 120.078 84.1721C121.146 84.0768 121.146 84.0768 121.572 84.3776C122.033 85.0132 121.888 85.8325 121.797 86.5784C121.428 87.8186 120.64 88.4931 119.53 89.1243C118.437 89.4647 117.322 89.5375 116.254 89.0706C115.318 88.5276 114.624 87.7198 114.159 86.7503C113.864 85.1769 113.864 85.1769 114.331 84.43C114.917 84.069 115.277 84.0635 115.953 84.1721Z" fill="#FD4856"/>
<path d="M48.9217 116.14C49.5857 116.733 49.7168 117.368 49.9529 118.203C50.5498 118.601 50.7998 118.59 51.4998 118.547C51.67 118.49 51.8401 118.433 52.0154 118.375C52.1736 117.945 52.1736 117.945 52.2733 117.44C52.4744 116.522 52.4744 116.522 53.0467 116.14C54.1149 116.045 54.1149 116.045 54.5405 116.346C55.0014 116.981 54.8563 117.801 54.7654 118.547C54.3965 119.787 53.6089 120.461 52.4988 121.093C51.406 121.433 50.2912 121.506 49.2225 121.039C48.2867 120.496 47.5923 119.688 47.1277 118.719C46.8327 117.145 46.8327 117.145 47.2996 116.398C47.8862 116.037 48.2457 116.032 48.9217 116.14Z" fill="#FFC344"/>
<path d="M113.07 114.183C113.216 114.182 113.361 114.18 113.511 114.178C113.668 114.179 113.825 114.18 113.987 114.181C114.229 114.181 114.229 114.181 114.477 114.18C114.819 114.18 115.161 114.18 115.502 114.183C116.026 114.185 116.549 114.183 117.072 114.179C117.404 114.18 117.736 114.18 118.069 114.181C118.225 114.18 118.382 114.179 118.543 114.178C119.614 114.19 119.614 114.19 120.176 114.47C120.515 114.878 120.513 115.273 120.53 115.791C120.356 116.353 120.057 116.517 119.562 116.828C119.031 116.932 118.508 116.933 117.967 116.931C117.814 116.933 117.661 116.934 117.503 116.936C117.18 116.938 116.857 116.938 116.534 116.937C116.041 116.935 115.548 116.943 115.054 116.952C114.74 116.953 114.425 116.953 114.111 116.953C113.89 116.958 113.89 116.958 113.665 116.962C112.673 116.947 112.673 116.947 112.226 116.609C111.814 116.145 111.656 115.875 111.656 115.249C111.933 114.471 112.24 114.186 113.07 114.183Z" fill="#FED15E"/>
<path d="M80.5623 51.0972C80.7638 51.0958 80.7638 51.0958 80.9694 51.0944C81.2529 51.0933 81.5365 51.0936 81.8201 51.095C82.2529 51.0965 82.6852 51.0915 83.118 51.0861C83.394 51.0858 83.6701 51.0859 83.9461 51.0864C84.0749 51.0845 84.2036 51.0826 84.3363 51.0806C84.972 51.089 85.3301 51.153 85.8706 51.4989C86.2188 51.8592 86.2188 51.8592 86.3268 52.209C86.2962 53.1456 86.2962 53.1456 85.9609 53.5293C85.3411 53.8474 84.741 53.8302 84.0596 53.8304C83.9172 53.8317 83.7748 53.833 83.6282 53.8343C83.3277 53.8362 83.0272 53.8367 82.7267 53.8359C82.2671 53.8357 81.808 53.8429 81.3485 53.8505C81.0562 53.8514 80.764 53.8519 80.4717 53.8519C80.3345 53.8547 80.1974 53.8575 80.056 53.8604C79.3844 53.852 79.0684 53.8122 78.5643 53.3527C78.3125 52.8904 78.3125 52.8904 78.3125 52.2674C78.4844 51.6873 78.4844 51.6873 78.752 51.3979C79.3442 51.0788 79.9058 51.0946 80.5623 51.0972Z" fill="#2AA7FD"/>
<path d="M49.153 53.8364C49.3609 53.836 49.3609 53.836 49.5729 53.8357C49.8653 53.8359 50.1577 53.8379 50.4501 53.8415C50.8971 53.8465 51.3438 53.845 51.7909 53.8428C52.0754 53.8439 52.3598 53.8453 52.6443 53.8472C52.7777 53.8466 52.9111 53.8461 53.0485 53.8456C53.6036 53.8553 54.0101 53.8843 54.5016 54.1533C54.8956 54.5768 54.9263 54.8973 54.9377 55.4686C54.5715 56.2532 54.5715 56.2532 54.0783 56.4998C53.6101 56.5231 53.1464 56.5364 52.6778 56.5408C52.5388 56.5421 52.3998 56.5435 52.2565 56.545C51.9621 56.5473 51.6676 56.5492 51.3732 56.5505C50.9231 56.5535 50.4732 56.561 50.0232 56.5686C49.7372 56.5704 49.4511 56.5718 49.1651 56.573C48.9634 56.5775 48.9634 56.5775 48.7576 56.5821C48.1486 56.5797 47.7899 56.5512 47.2902 56.1891C46.9108 55.6366 46.938 55.2632 47.0315 54.6092C47.5908 53.7986 48.2413 53.8232 49.153 53.8364Z" fill="#0182FC"/>
<path d="M53.8418 47.5625C54.4153 47.7324 54.5901 47.7906 54.9375 48.25C55.0544 48.8333 55.0389 49.3834 54.9375 49.9688C54.5723 50.4307 54.5723 50.4307 54.0781 50.6562C53.4045 50.67 53.1412 50.5688 52.6387 50.1191C52.2817 49.4876 52.2444 49.1373 52.3594 48.4219C52.821 47.7504 53.0167 47.5625 53.8418 47.5625Z" fill="#0283FC"/>
<path d="M48.5137 47.5625C49.0872 47.7324 49.262 47.7906 49.6094 48.25C49.7262 48.8333 49.7108 49.3834 49.6094 49.9688C49.2441 50.4307 49.2441 50.4307 48.75 50.6562C48.0764 50.67 47.8131 50.5688 47.3106 50.1191C46.9536 49.4876 46.9163 49.1373 47.0313 48.4219C47.4929 47.7504 47.6885 47.5625 48.5137 47.5625Z" fill="#0283FC"/>
<path d="M53.6487 110.544C54.2502 110.641 54.2502 110.641 54.6692 110.888C55.0672 111.541 55.0717 112.13 54.9377 112.875C54.6584 113.315 54.6584 113.315 54.2502 113.562C53.7453 113.659 53.7453 113.659 53.219 113.562C52.7248 113.208 52.7248 113.208 52.3596 112.703C52.245 111.99 52.2889 111.633 52.6281 110.995C53.0471 110.641 53.0471 110.641 53.6487 110.544Z" fill="#FFC445"/>
<path d="M48.3205 110.544C48.9221 110.641 48.9221 110.641 49.341 110.888C49.7391 111.541 49.7435 112.13 49.6096 112.875C49.3303 113.315 49.3303 113.315 48.9221 113.562C48.4172 113.659 48.4172 113.659 47.8908 113.562C47.3967 113.208 47.3967 113.208 47.0315 112.703C46.9168 111.99 46.9608 111.633 47.3 110.995C47.719 110.641 47.719 110.641 48.3205 110.544Z" fill="#FFC445"/>
<path d="M116.125 79.1873C116.544 79.4451 116.544 79.4451 116.812 79.8748C116.935 80.7335 116.944 81.0542 116.458 81.7762C115.953 82.1092 115.953 82.1092 115.33 82.1199C114.75 81.9373 114.75 81.9373 114.417 81.6687C114.152 81.0618 114.117 80.5258 114.234 79.8748C114.722 79.0945 115.247 79.0618 116.125 79.1873Z" fill="#FD4856"/>
<path d="M121.453 79.1873C121.872 79.4451 121.872 79.4451 122.14 79.8748C122.263 80.7335 122.272 81.0542 121.786 81.7762C121.281 82.1092 121.281 82.1092 120.658 82.1199C120.078 81.9373 120.078 81.9373 119.745 81.6687C119.48 81.0618 119.445 80.5258 119.562 79.8748C120.05 79.0945 120.575 79.0618 121.453 79.1873Z" fill="#FD4856"/>
</g>
<defs>
<clipPath id="clip0_461_3150">
<rect width="88" height="88" fill="white" transform="translate(40.5 40)"/>
</clipPath>
</defs>
</svg>
