<svg width="14" height="16" viewBox="0 0 14 16" fill="none" xmlns="http://www.w3.org/2000/svg">
<path fill-rule="evenodd" clip-rule="evenodd" d="M9.9 4.8312H3.8752C3.5312 4.8312 3.2528 5.1128 3.2528 5.4656C3.2528 5.816 3.5312 6.0968 3.8752 6.0968H9.9C10.244 6.0968 10.5248 5.816 10.5248 5.4656C10.5248 5.1128 10.244 4.8312 9.9 4.8312ZM9.356 0C11.5248 0 13.2752 0.856 13.3 3.0312V15.1752C13.3 15.3128 13.2688 15.4472 13.2032 15.5688C13.1 15.7592 12.9248 15.9032 12.7096 15.9688C12.5 16.0312 12.2688 16 12.0752 15.8872L6.8904 13.2968L1.7 15.8872C1.5816 15.9496 1.444 15.9904 1.3096 15.9904C0.8592 15.9904 0.5 15.6248 0.5 15.1752V3.0312C0.5 0.856 2.2592 0 4.4184 0H9.356Z" fill="#0961F5"/>
</svg>
