<svg width="48" height="48" viewBox="0 0 48 48" fill="none" xmlns="http://www.w3.org/2000/svg">
<circle cx="24" cy="24" r="24" fill="#F6F8FF"/>
<path d="M29.53 19.77C29.46 19.76 29.39 19.76 29.32 19.77C27.77 19.72 26.54 18.45 26.54 16.89C26.54 15.3 27.83 14 29.43 14C31.02 14 32.32 15.29 32.32 16.89C32.31 18.45 31.08 19.72 29.53 19.77Z" fill="url(#paint0_linear_461_3346)"/>
<path d="M32.7901 26.6999C31.6701 27.4499 30.1001 27.7299 28.6501 27.5399C29.0301 26.7199 29.2301 25.8099 29.2401 24.8499C29.2401 23.8499 29.0201 22.8999 28.6001 22.0699C30.0801 21.8699 31.6501 22.1499 32.7801 22.8999C34.3601 23.9399 34.3601 25.6499 32.7901 26.6999Z" fill="url(#paint1_linear_461_3346)"/>
<path d="M18.4402 19.77C18.5102 19.76 18.5802 19.76 18.6502 19.77C20.2002 19.72 21.4302 18.45 21.4302 16.89C21.4302 15.29 20.1402 14 18.5402 14C16.9502 14 15.6602 15.29 15.6602 16.89C15.6602 18.45 16.8902 19.72 18.4402 19.77Z" fill="url(#paint2_linear_461_3346)"/>
<path d="M18.5501 24.8501C18.5501 25.8201 18.7601 26.7401 19.1401 27.5701C17.7301 27.7201 16.2601 27.4201 15.1801 26.7101C13.6001 25.6601 13.6001 23.9501 15.1801 22.9001C16.2501 22.1801 17.7601 21.8901 19.1801 22.0501C18.7701 22.8901 18.5501 23.8401 18.5501 24.8501Z" fill="url(#paint3_linear_461_3346)"/>
<path d="M24.1198 27.87C24.0398 27.86 23.9498 27.86 23.8598 27.87C22.0198 27.81 20.5498 26.3 20.5498 24.44C20.5598 22.54 22.0898 21 23.9998 21C25.8998 21 27.4398 22.54 27.4398 24.44C27.4298 26.3 25.9698 27.81 24.1198 27.87Z" fill="url(#paint4_linear_461_3346)"/>
<path d="M20.8698 29.9401C19.3598 30.9501 19.3598 32.6101 20.8698 33.6101C22.5898 34.7601 25.4098 34.7601 27.1298 33.6101C28.6398 32.6001 28.6398 30.9401 27.1298 29.9401C25.4198 28.7901 22.5998 28.7901 20.8698 29.9401Z" fill="url(#paint5_linear_461_3346)"/>
<defs>
<linearGradient id="paint0_linear_461_3346" x1="25.365" y1="16.8892" x2="33.8444" y2="16.8892" gradientUnits="userSpaceOnUse">
<stop offset="0.213483" stop-color="#1A70C5"/>
<stop offset="1" stop-color="#2647B8"/>
</linearGradient>
<linearGradient id="paint1_linear_461_3346" x1="27.5092" y1="24.8065" x2="35.3816" y2="24.8065" gradientUnits="userSpaceOnUse">
<stop offset="0.213483" stop-color="#1A70C5"/>
<stop offset="1" stop-color="#2647B8"/>
</linearGradient>
<linearGradient id="paint2_linear_461_3346" x1="14.4871" y1="16.8892" x2="22.9519" y2="16.8892" gradientUnits="userSpaceOnUse">
<stop offset="0.213483" stop-color="#1A70C5"/>
<stop offset="1" stop-color="#2647B8"/>
</linearGradient>
<linearGradient id="paint3_linear_461_3346" x1="12.941" y1="24.8116" x2="20.5476" y2="24.8116" gradientUnits="userSpaceOnUse">
<stop offset="0.213483" stop-color="#1A70C5"/>
<stop offset="1" stop-color="#2647B8"/>
</linearGradient>
<linearGradient id="paint4_linear_461_3346" x1="19.1491" y1="24.44" x2="29.2569" y2="24.44" gradientUnits="userSpaceOnUse">
<stop offset="0.213483" stop-color="#1A70C5"/>
<stop offset="1" stop-color="#2647B8"/>
</linearGradient>
<linearGradient id="paint5_linear_461_3346" x1="18.0042" y1="31.779" x2="30.5107" y2="31.779" gradientUnits="userSpaceOnUse">
<stop offset="0.213483" stop-color="#1A70C5"/>
<stop offset="1" stop-color="#2647B8"/>
</linearGradient>
</defs>
</svg>
