<svg width="20" height="20" viewBox="0 0 20 20" fill="none" xmlns="http://www.w3.org/2000/svg">
<path d="M14.1581 8.09163H5.84147C5.49981 8.09163 5.21647 7.8083 5.21647 7.46663C5.21647 7.12496 5.49981 6.84163 5.84147 6.84163H14.1581C14.4998 6.84163 14.7831 7.12496 14.7831 7.46663C14.7831 7.8083 14.4998 8.09163 14.1581 8.09163Z" fill="#292D32"/>
<path d="M10 8.09169C9.65833 8.09169 9.375 7.80836 9.375 7.46669V6.0667C9.375 5.72503 9.65833 5.4417 10 5.4417C10.3417 5.4417 10.625 5.72503 10.625 6.0667V7.46669C10.625 7.80836 10.3417 8.09169 10 8.09169Z" fill="#292D32"/>
<path d="M5.83333 14.5583C5.49167 14.5583 5.20833 14.2749 5.20833 13.9333C5.20833 13.5916 5.49167 13.3083 5.83333 13.3083C8.93333 13.3083 11.4583 10.6833 11.4583 7.44995C11.4583 7.10828 11.7417 6.82495 12.0833 6.82495C12.425 6.82495 12.7083 7.10828 12.7083 7.44995C12.7083 11.375 9.625 14.5583 5.83333 14.5583Z" fill="#292D32"/>
<path d="M14.1669 14.5583C12.5252 14.5583 11.0002 13.7417 9.88352 12.25C9.67519 11.975 9.73354 11.5834 10.0085 11.375C10.2835 11.1667 10.6752 11.225 10.8835 11.5C11.7669 12.6667 12.9335 13.3083 14.1752 13.3083C14.5169 13.3083 14.8002 13.5917 14.8002 13.9333C14.8002 14.275 14.5085 14.5583 14.1669 14.5583Z" fill="#292D32"/>
<path d="M10 18.9583C5.05833 18.9583 1.04167 14.9417 1.04167 10C1.04167 5.05834 5.05833 1.04167 10 1.04167C14.9417 1.04167 18.9583 5.05834 18.9583 10C18.9583 14.9417 14.9417 18.9583 10 18.9583ZM10 2.29167C5.75 2.29167 2.29167 5.75001 2.29167 10C2.29167 14.25 5.75 17.7083 10 17.7083C14.25 17.7083 17.7083 14.25 17.7083 10C17.7083 5.75001 14.25 2.29167 10 2.29167Z" fill="#292D32"/>
</svg>
