<svg width="44" height="44" viewBox="0 0 44 44" fill="none" xmlns="http://www.w3.org/2000/svg">
<path d="M22.9717 37.4349H11.385C5.59166 37.4349 3.66666 33.5849 3.66666 29.7165V14.2799C3.66666 8.48652 5.59166 6.56152 11.385 6.56152H22.9717C28.765 6.56152 30.69 8.48652 30.69 14.2799V29.7165C30.69 35.5099 28.7467 37.4349 22.9717 37.4349Z" stroke="#040815" stroke-width="2" stroke-linecap="round" stroke-linejoin="round"/>
<path d="M35.7864 31.3502L30.6898 27.7752V16.2069L35.7864 12.6319C38.2798 10.8902 40.3331 11.9536 40.3331 15.0152V28.9852C40.3331 32.0469 38.2798 33.1102 35.7864 31.3502Z" stroke="#040815" stroke-width="2" stroke-linecap="round" stroke-linejoin="round"/>
<path d="M21.0836 20.165C22.6023 20.165 23.8336 18.9338 23.8336 17.415C23.8336 15.8963 22.6023 14.665 21.0836 14.665C19.5648 14.665 18.3336 15.8963 18.3336 17.415C18.3336 18.9338 19.5648 20.165 21.0836 20.165Z" stroke="#040815" stroke-width="2" stroke-linecap="round" stroke-linejoin="round"/>
</svg>
