<svg width="20" height="20" viewBox="0 0 20 20" fill="none" xmlns="http://www.w3.org/2000/svg">
<path d="M14.1667 15.3584H10.8333L7.12499 17.825C6.57499 18.1917 5.83333 17.8 5.83333 17.1334V15.3584C3.33333 15.3584 1.66667 13.6917 1.66667 11.1917V6.19166C1.66667 3.69166 3.33333 2.02499 5.83333 2.02499H14.1667C16.6667 2.02499 18.3333 3.69166 18.3333 6.19166V11.1917C18.3333 13.6917 16.6667 15.3584 14.1667 15.3584Z" stroke="#040815" stroke-width="1.2" stroke-miterlimit="10" stroke-linecap="round" stroke-linejoin="round"/>
<path d="M10 9.46664V9.29168C10 8.72501 10.35 8.425 10.7 8.18333C11.0417 7.95 11.3833 7.65001 11.3833 7.10001C11.3833 6.33334 10.7667 5.71664 10 5.71664C9.23333 5.71664 8.61669 6.33334 8.61669 7.10001" stroke="#040815" stroke-width="1.2" stroke-linecap="round" stroke-linejoin="round"/>
<path d="M9.99625 11.4583H10.0037" stroke="#040815" stroke-width="1.2" stroke-linecap="round" stroke-linejoin="round"/>
</svg>
