<svg width="28" height="29" viewBox="0 0 28 29" fill="none" xmlns="http://www.w3.org/2000/svg">
<path fill-rule="evenodd" clip-rule="evenodd" d="M13.9998 1.66663C6.91234 1.66663 1.1665 7.41246 1.1665 14.5C1.1665 21.5875 6.91234 27.3333 13.9998 27.3333C21.0873 27.3333 26.8332 21.5875 26.8332 14.5C26.8332 7.41246 21.0873 1.66663 13.9998 1.66663ZM12.7072 10.9241C12.9755 10.3956 13.1738 10.1448 13.3383 10.0141C13.462 9.91613 13.63 9.83329 13.9998 9.83329C14.729 9.83329 15.1665 10.3816 15.1665 10.9743C15.1665 11.2986 15.1035 11.4596 14.9308 11.665C14.6893 11.952 14.2425 12.3008 13.3582 12.8853L12.8332 13.2306V15.6666C12.8332 15.976 12.9561 16.2728 13.1749 16.4916C13.3937 16.7104 13.6904 16.8333 13.9998 16.8333C14.3093 16.8333 14.606 16.7104 14.8248 16.4916C15.0436 16.2728 15.1665 15.976 15.1665 15.6666V14.4801C15.7988 14.0438 16.3297 13.6261 16.7147 13.1688C17.2712 12.5085 17.4998 11.8038 17.4998 10.9743C17.4998 9.25929 16.178 7.49996 13.9998 7.49996C13.2018 7.49996 12.496 7.70529 11.8905 8.18479C11.3258 8.63163 10.9408 9.24646 10.6258 9.87063C10.5526 10.0077 10.5076 10.158 10.4932 10.3127C10.4789 10.4674 10.4956 10.6234 10.5424 10.7715C10.5892 10.9197 10.6651 11.057 10.7656 11.1754C10.8662 11.2939 10.9894 11.391 11.128 11.4612C11.2667 11.5314 11.4179 11.5731 11.5729 11.584C11.7279 11.595 11.8835 11.5748 12.0306 11.5248C12.1777 11.4748 12.3133 11.3959 12.4295 11.2927C12.5457 11.1896 12.6401 11.0643 12.7072 10.9241ZM15.1665 19.75C15.1665 19.4405 15.0436 19.1438 14.8248 18.925C14.606 18.7062 14.3093 18.5833 13.9998 18.5833C13.6904 18.5833 13.3937 18.7062 13.1749 18.925C12.9561 19.1438 12.8332 19.4405 12.8332 19.75V20.3333C12.8332 20.6427 12.9561 20.9395 13.1749 21.1583C13.3937 21.377 13.6904 21.5 13.9998 21.5C14.3093 21.5 14.606 21.377 14.8248 21.1583C15.0436 20.9395 15.1665 20.6427 15.1665 20.3333V19.75Z" fill="url(#paint0_linear_88_757)"/>
<defs>
<linearGradient id="paint0_linear_88_757" x1="-4.05144" y1="14.5185" x2="33.6024" y2="14.5185" gradientUnits="userSpaceOnUse">
<stop offset="0.213483" stop-color="#1A70C5"/>
<stop offset="1" stop-color="#2647B8"/>
</linearGradient>
</defs>
</svg>
