<svg width="20" height="20" viewBox="0 0 20 20" fill="none" xmlns="http://www.w3.org/2000/svg">
<path d="M7.5 18.3333H12.5C16.6667 18.3333 18.3333 16.6667 18.3333 12.5V7.5C18.3333 3.33333 16.6667 1.66667 12.5 1.66667H7.5C3.33333 1.66667 1.66667 3.33333 1.66667 7.5V12.5C1.66667 16.6667 3.33333 18.3333 7.5 18.3333Z" stroke="#040815" stroke-width="1.2" stroke-linecap="round" stroke-linejoin="round"/>
<path d="M14.1667 2.03288V10.3495C14.1667 11.9912 12.9917 12.6329 11.55 11.7662L10.45 11.1079C10.2 10.9579 9.8 10.9579 9.55 11.1079L8.45 11.7662C7.00833 12.6245 5.83333 11.9912 5.83333 10.3495V2.03288" stroke="#040815" stroke-width="1.2" stroke-linecap="round" stroke-linejoin="round"/>
<path d="M7.5 18.3333H12.5C16.6667 18.3333 18.3333 16.6667 18.3333 12.5V7.5C18.3333 3.33333 16.6667 1.66667 12.5 1.66667H7.5C3.33333 1.66667 1.66667 3.33333 1.66667 7.5V12.5C1.66667 16.6667 3.33333 18.3333 7.5 18.3333Z" stroke="#040815" stroke-width="1.2" stroke-linecap="round" stroke-linejoin="round"/>
<path d="M14.1667 2.03288V10.3495C14.1667 11.9912 12.9917 12.6329 11.55 11.7662L10.45 11.1079C10.2 10.9579 9.8 10.9579 9.55 11.1079L8.45 11.7662C7.00833 12.6245 5.83333 11.9912 5.83333 10.3495V2.03288" stroke="#040815" stroke-width="1.2" stroke-linecap="round" stroke-linejoin="round"/>
</svg>
