<svg width="18" height="18" viewBox="0 0 18 18" fill="none" xmlns="http://www.w3.org/2000/svg">
<path d="M0.16753 0.166404C0.088192 0.245875 0.0339451 0.346908 0.0115318 0.456951C-0.0108814 0.566994 -0.00047493 0.681198 0.0414581 0.785376L6.71062 17.4598C6.76939 17.6066 6.86753 17.7344 6.99424 17.8291C7.12095 17.9237 7.27131 17.9816 7.42878 17.9963C7.58625 18.011 7.74472 17.9819 7.88675 17.9124C8.02878 17.8428 8.14886 17.7354 8.23379 17.6019L11.8761 11.8764L17.6009 8.23367C17.7346 8.14883 17.8423 8.02869 17.9121 7.88651C17.9818 7.74432 18.011 7.58562 17.9963 7.42792C17.9816 7.27022 17.9236 7.11964 17.8288 6.99281C17.7339 6.86598 17.6059 6.76782 17.4587 6.70917L0.786423 0.0414633C0.682257 -0.000475161 0.568069 -0.0108827 0.45804 0.0115334C0.348011 0.0339496 0.246992 0.0882016 0.16753 0.16755V0.166404ZM10.7323 11.5417L7.5679 16.5141L2.14341 2.95178L10.7323 11.5417ZM2.9537 2.14138L16.5144 7.56656L11.5414 10.7302L2.95255 2.14138H2.9537Z" fill="#8D8F95"/>
</svg>
