<svg width="28" height="29" viewBox="0 0 28 29" fill="none" xmlns="http://www.w3.org/2000/svg">
<path d="M15.7616 4.16212C15.0009 2.77962 12.9989 2.77962 12.2371 4.16212C11.2353 5.98257 10.4094 7.89445 9.77077 9.87179C9.74065 9.94915 9.68767 10.0155 9.61888 10.062C9.5501 10.1085 9.46878 10.1329 9.38577 10.132C7.67423 10.1764 5.96826 10.3465 4.2816 10.6406C2.72177 10.9125 2.0346 12.7838 3.21993 13.9423C4.49375 15.1892 5.85523 16.3432 7.29393 17.3956C7.35117 17.4342 7.39438 17.4903 7.41709 17.5555C7.4398 17.6207 7.4408 17.6915 7.41993 17.7573C6.77997 19.6801 6.32294 21.6589 6.05493 23.6676C5.83327 25.329 7.59143 26.3486 8.9646 25.644C10.6316 24.7896 12.2256 23.7996 13.7304 22.6841C13.8092 22.6284 13.9034 22.5984 13.9999 22.5984C14.0965 22.5984 14.1906 22.6284 14.2694 22.6841C15.7734 23.801 17.3675 24.791 19.0353 25.644C20.4084 26.3486 22.1678 25.329 21.9461 23.6676C21.6776 21.6593 21.2202 19.6808 20.5799 17.7585C20.5593 17.6924 20.5606 17.6214 20.5838 17.5562C20.6069 17.491 20.6506 17.4351 20.7083 17.3968C22.1462 16.3443 23.5069 15.1903 24.7799 13.9435C25.9653 12.7838 25.2781 10.9125 23.7183 10.6406C22.0312 10.3464 20.3249 10.1764 18.6129 10.132C18.5301 10.1326 18.4491 10.1081 18.3805 10.0616C18.312 10.0152 18.2591 9.94896 18.2291 9.87179C17.5925 7.8937 16.7654 5.98162 15.7616 4.16212Z" fill="url(#paint0_linear_88_769)"/>
<defs>
<linearGradient id="paint0_linear_88_769" x1="-2.00615" y1="14.5141" x2="31.3815" y2="14.5141" gradientUnits="userSpaceOnUse">
<stop offset="0.213483" stop-color="#1A70C5"/>
<stop offset="1" stop-color="#2647B8"/>
</linearGradient>
</defs>
</svg>
