<svg width="28" height="29" viewBox="0 0 28 29" fill="none" xmlns="http://www.w3.org/2000/svg">
<path d="M14.0002 2.83337C20.4437 2.83337 25.6668 8.05654 25.6668 14.5C25.6668 20.9435 20.4437 26.1667 14.0002 26.1667C7.55666 26.1667 2.3335 20.9435 2.3335 14.5C2.3335 8.05654 7.55666 2.83337 14.0002 2.83337ZM14.0002 7.50004C13.6907 7.50004 13.394 7.62296 13.1752 7.84175C12.9564 8.06054 12.8335 8.35729 12.8335 8.66671V14.5C12.8336 14.8094 12.9565 15.1061 13.1753 15.3249L16.6753 18.8249C16.8954 19.0374 17.1901 19.155 17.496 19.1523C17.8019 19.1497 18.0945 19.027 18.3108 18.8107C18.5271 18.5944 18.6498 18.3017 18.6525 17.9958C18.6551 17.6899 18.5375 17.3952 18.325 17.1752L15.1668 14.017V8.66671C15.1668 8.35729 15.0439 8.06054 14.8251 7.84175C14.6063 7.62296 14.3096 7.50004 14.0002 7.50004Z" fill="url(#paint0_linear_88_749)"/>
<defs>
<linearGradient id="paint0_linear_88_749" x1="-2.41009" y1="14.5169" x2="31.8207" y2="14.5169" gradientUnits="userSpaceOnUse">
<stop offset="0.213483" stop-color="#1A70C5"/>
<stop offset="1" stop-color="#2647B8"/>
</linearGradient>
</defs>
</svg>
