<svg width="32" height="32" viewBox="0 0 32 32" fill="none" xmlns="http://www.w3.org/2000/svg">
<path d="M9.71336 1.96741C9.86592 1.96707 10.0185 1.96662 10.171 1.96608C10.5403 1.96506 10.9096 1.96521 11.2789 1.96593C11.5793 1.9665 11.8798 1.96657 12.1803 1.9663C12.2232 1.96627 12.2662 1.96623 12.3105 1.96619C12.3978 1.96611 12.4851 1.96603 12.5724 1.96594C13.3889 1.96523 14.2053 1.96605 15.0217 1.96739C15.7203 1.96851 16.4189 1.96832 17.1175 1.96716C17.9313 1.96582 18.745 1.9653 19.5588 1.96607C19.6457 1.96615 19.7327 1.96623 19.8197 1.9663C19.8839 1.96636 19.8839 1.96636 19.9493 1.96642C20.249 1.96663 20.5487 1.96627 20.8483 1.96568C21.2526 1.9649 21.6568 1.96547 22.0611 1.96691C22.2088 1.96724 22.3566 1.96715 22.5044 1.96659C23.4945 1.96322 24.3812 2.01261 25.2734 2.48804C25.3149 2.50945 25.3565 2.53086 25.3992 2.55292C25.7333 2.72999 26.0267 2.93977 26.3125 3.18726C26.3868 3.24321 26.3868 3.24321 26.4626 3.30029C27.0594 3.80375 27.4938 4.51828 27.75 5.24976C27.7707 5.30404 27.7915 5.35832 27.8129 5.41425C28.0807 6.23553 28.0357 7.08725 28.0327 7.94148C28.0321 8.17973 28.033 8.41797 28.0337 8.65622C28.0348 9.12176 28.0345 9.58729 28.0338 10.0528C28.0332 10.4315 28.0332 10.8101 28.0334 11.1888C28.0335 11.2428 28.0335 11.2969 28.0336 11.3526C28.0336 11.4625 28.0337 11.5724 28.0338 11.6822C28.0345 12.7104 28.0337 13.7385 28.0323 14.7667C28.0312 15.6472 28.0314 16.5278 28.0326 17.4083C28.0339 18.433 28.0344 19.4577 28.0337 20.4824C28.0336 20.5919 28.0335 20.7013 28.0334 20.8107C28.0334 20.8915 28.0334 20.8915 28.0333 20.9739C28.0331 21.3517 28.0335 21.7295 28.0341 22.1073C28.0348 22.5683 28.0346 23.0293 28.0332 23.4902C28.0326 23.725 28.0323 23.9598 28.0331 24.1946C28.0367 25.2883 28.0381 26.2853 27.5117 27.2732C27.4903 27.3147 27.4689 27.3562 27.4468 27.399C27.2697 27.733 27.06 28.0265 26.8125 28.3123C26.7752 28.3618 26.7379 28.4114 26.6994 28.4624C26.1971 29.0579 25.4812 29.4962 24.75 29.7498C24.6914 29.7705 24.6329 29.7913 24.5726 29.8127C23.8156 30.0479 23.0735 30.0351 22.2866 30.0321C22.134 30.0324 21.9815 30.0329 21.8289 30.0334C21.4596 30.0345 21.0904 30.0343 20.7211 30.0336C20.4206 30.033 20.1202 30.0329 19.8197 30.0332C19.7767 30.0333 19.7338 30.0333 19.6895 30.0333C19.6022 30.0334 19.5149 30.0335 19.4275 30.0336C18.6111 30.0343 17.7947 30.0335 16.9783 30.0321C16.2797 30.031 15.5811 30.0312 14.8824 30.0324C14.0687 30.0337 13.2549 30.0342 12.4412 30.0334C12.3542 30.0334 12.2672 30.0333 12.1803 30.0332C12.1161 30.0332 12.1161 30.0332 12.0506 30.0331C11.751 30.0329 11.4513 30.0332 11.1516 30.0338C10.7474 30.0346 10.3431 30.034 9.93889 30.0326C9.79113 30.0323 9.64337 30.0324 9.49561 30.0329C8.50543 30.0363 7.61875 29.9869 6.72655 29.5115C6.68503 29.4901 6.64351 29.4687 6.60074 29.4466C6.2667 29.2695 5.97327 29.0597 5.68748 28.8123C5.63794 28.775 5.58839 28.7377 5.53734 28.6992C4.94055 28.1958 4.50618 27.4812 4.24998 26.7498C4.21884 26.6683 4.21884 26.6683 4.18706 26.5853C3.91924 25.764 3.96427 24.9123 3.9673 24.058C3.96787 23.8198 3.96699 23.5815 3.96631 23.3433C3.9652 22.8778 3.96543 22.4122 3.96616 21.9467C3.96673 21.568 3.9668 21.1894 3.96653 20.8107C3.96649 20.7567 3.96645 20.7026 3.96641 20.6469C3.96633 20.537 3.96625 20.4272 3.96617 20.3173C3.96546 19.2891 3.96627 18.261 3.96762 17.2328C3.96874 16.3523 3.96854 15.4717 3.96739 14.5912C3.96605 13.5665 3.96553 12.5418 3.96629 11.5171C3.96637 11.4077 3.96645 11.2982 3.96653 11.1888C3.96657 11.1349 3.96661 11.0811 3.96665 11.0256C3.96686 10.6478 3.9665 10.27 3.96591 9.89219C3.96521 9.43122 3.9654 8.97026 3.96673 8.50929C3.96738 8.27448 3.96765 8.03969 3.96682 7.80489C3.96326 6.7112 3.96186 5.71418 4.48826 4.72632C4.52038 4.66404 4.52038 4.66404 4.55315 4.60051C4.73022 4.26647 4.94 3.97305 5.18748 3.68726C5.22479 3.63771 5.26209 3.58816 5.30052 3.53711C5.80287 2.94163 6.51878 2.50332 7.24998 2.24976C7.30852 2.22899 7.36707 2.20823 7.42738 2.18684C8.18437 1.95164 8.92646 1.96446 9.71336 1.96741ZM13.25 10.3787C13.0358 10.6933 13.0214 10.9359 13.0625 11.3123C13.2092 11.617 13.393 11.775 13.6875 11.9373C13.9067 11.9928 14.1118 12.0078 14.3375 12.0085C14.4044 12.0089 14.4713 12.0092 14.5403 12.0096C14.6495 12.0097 14.6495 12.0097 14.7609 12.0098C14.8381 12.0101 14.9153 12.0104 14.9948 12.0108C15.206 12.0115 15.4173 12.012 15.6286 12.0123C15.7608 12.0125 15.893 12.0127 16.0252 12.013C16.4394 12.0138 16.8537 12.0144 17.2679 12.0147C17.7449 12.015 18.222 12.0161 18.699 12.0179C19.0685 12.0192 19.438 12.0199 19.8075 12.0199C20.0278 12.02 20.2482 12.0204 20.4685 12.0215C20.7146 12.0227 20.9606 12.0224 21.2067 12.022C21.3151 12.0229 21.3151 12.0229 21.4258 12.0238C22.0899 12.021 22.09 12.021 22.6636 11.7215C22.9177 11.4253 22.9597 11.2249 22.9548 10.8459C22.9291 10.6107 22.8448 10.4861 22.6875 10.3123C22.352 10.0481 22.0809 9.99232 21.6625 9.99098C21.5955 9.99062 21.5286 9.99027 21.4597 9.9899C21.3505 9.98979 21.3505 9.98979 21.2391 9.98969C21.1619 9.98938 21.0847 9.98907 21.0052 9.98875C20.7939 9.98799 20.5827 9.98752 20.3714 9.98725C20.2392 9.98706 20.107 9.9868 19.9748 9.98653C19.5605 9.98567 19.1463 9.98507 18.7321 9.98483C18.255 9.98455 17.778 9.98345 17.3009 9.98164C16.9314 9.98028 16.562 9.97966 16.1925 9.97957C15.9721 9.97951 15.7518 9.97914 15.5315 9.97802C15.2854 9.97679 15.0393 9.97707 14.7933 9.97748C14.6848 9.97662 14.6848 9.97662 14.5742 9.97573C14.0923 9.97821 13.5844 9.98888 13.25 10.3787ZM9.43748 10.1873C9.24431 10.3598 9.07649 10.5596 9.04759 10.823C9.03711 11.1871 9.05759 11.4055 9.31248 11.6873C9.58732 11.9359 9.80893 11.9736 10.167 11.957C10.4825 11.9141 10.6802 11.7341 10.874 11.4876C10.9948 11.2729 11.0144 11.0553 11 10.8123C10.8941 10.4883 10.7153 10.3171 10.4375 10.1248C10.0667 9.95684 9.78744 9.99786 9.43748 10.1873ZM13.25 15.3787C13.0358 15.6933 13.0214 15.9359 13.0625 16.3123C13.2092 16.617 13.393 16.775 13.6875 16.9373C13.9067 16.9928 14.1118 17.0078 14.3375 17.0085C14.4044 17.0089 14.4713 17.0092 14.5403 17.0096C14.6495 17.0097 14.6495 17.0097 14.7609 17.0098C14.8381 17.0101 14.9153 17.0104 14.9948 17.0108C15.206 17.0115 15.4173 17.012 15.6286 17.0123C15.7608 17.0125 15.893 17.0127 16.0252 17.013C16.4394 17.0138 16.8537 17.0144 17.2679 17.0147C17.7449 17.015 18.222 17.0161 18.699 17.0179C19.0685 17.0192 19.438 17.0199 19.8075 17.0199C20.0278 17.02 20.2482 17.0204 20.4685 17.0215C20.7146 17.0227 20.9606 17.0224 21.2067 17.022C21.3151 17.0229 21.3151 17.0229 21.4258 17.0238C22.0899 17.021 22.09 17.021 22.6636 16.7215C22.9177 16.4253 22.9597 16.2249 22.9548 15.8459C22.9291 15.6107 22.8448 15.4861 22.6875 15.3123C22.352 15.0481 22.0809 14.9923 21.6625 14.991C21.5955 14.9906 21.5286 14.9903 21.4597 14.9899C21.3505 14.9898 21.3505 14.9898 21.2391 14.9897C21.1619 14.9894 21.0847 14.9891 21.0052 14.9887C20.7939 14.988 20.5827 14.9875 20.3714 14.9872C20.2392 14.9871 20.107 14.9868 19.9748 14.9865C19.5605 14.9857 19.1463 14.9851 18.7321 14.9848C18.255 14.9845 17.778 14.9835 17.3009 14.9816C16.9314 14.9803 16.562 14.9797 16.1925 14.9796C15.9721 14.9795 15.7518 14.9791 15.5315 14.978C15.2854 14.9768 15.0393 14.9771 14.7933 14.9775C14.6848 14.9766 14.6848 14.9766 14.5742 14.9757C14.0923 14.9782 13.5844 14.9889 13.25 15.3787ZM9.43748 15.1873C9.24431 15.3598 9.07649 15.5596 9.04759 15.823C9.03711 16.1871 9.05759 16.4055 9.31248 16.6873C9.58732 16.9359 9.80893 16.9736 10.167 16.957C10.4825 16.9141 10.6802 16.7341 10.874 16.4876C10.9948 16.2729 11.0144 16.0553 11 15.8123C10.8941 15.4883 10.7153 15.3171 10.4375 15.1248C10.0667 14.9568 9.78744 14.9979 9.43748 15.1873ZM13.25 20.3787C13.0358 20.6933 13.0214 20.9359 13.0625 21.3123C13.2092 21.617 13.393 21.775 13.6875 21.9373C13.9067 21.9928 14.1118 22.0078 14.3375 22.0085C14.4044 22.0089 14.4713 22.0092 14.5403 22.0096C14.6495 22.0097 14.6495 22.0097 14.7609 22.0098C14.8381 22.0101 14.9153 22.0104 14.9948 22.0108C15.206 22.0115 15.4173 22.012 15.6286 22.0123C15.7608 22.0125 15.893 22.0127 16.0252 22.013C16.4394 22.0138 16.8537 22.0144 17.2679 22.0147C17.7449 22.015 18.222 22.0161 18.699 22.0179C19.0685 22.0192 19.438 22.0199 19.8075 22.0199C20.0278 22.02 20.2482 22.0204 20.4685 22.0215C20.7146 22.0227 20.9606 22.0224 21.2067 22.022C21.3151 22.0229 21.3151 22.0229 21.4258 22.0238C22.0899 22.021 22.09 22.021 22.6636 21.7215C22.9177 21.4253 22.9597 21.2249 22.9548 20.8459C22.9291 20.6107 22.8448 20.4861 22.6875 20.3123C22.352 20.0481 22.0809 19.9923 21.6625 19.991C21.5955 19.9906 21.5286 19.9903 21.4597 19.9899C21.3505 19.9898 21.3505 19.9898 21.2391 19.9897C21.1619 19.9894 21.0847 19.9891 21.0052 19.9887C20.7939 19.988 20.5827 19.9875 20.3714 19.9872C20.2392 19.9871 20.107 19.9868 19.9748 19.9865C19.5605 19.9857 19.1463 19.9851 18.7321 19.9848C18.255 19.9845 17.778 19.9835 17.3009 19.9816C16.9314 19.9803 16.562 19.9797 16.1925 19.9796C15.9721 19.9795 15.7518 19.9791 15.5315 19.978C15.2854 19.9768 15.0393 19.9771 14.7933 19.9775C14.6848 19.9766 14.6848 19.9766 14.5742 19.9757C14.0923 19.9782 13.5844 19.9889 13.25 20.3787ZM9.43748 20.1873C9.24431 20.3598 9.07649 20.5596 9.04759 20.823C9.03711 21.1871 9.05759 21.4055 9.31248 21.6873C9.58732 21.9359 9.80893 21.9736 10.167 21.957C10.4825 21.9141 10.6802 21.7341 10.874 21.4876C10.9948 21.2729 11.0144 21.0553 11 20.8123C10.8941 20.4883 10.7153 20.3171 10.4375 20.1248C10.0667 19.9568 9.78744 19.9979 9.43748 20.1873Z" fill="url(#paint0_linear_368_1296)"/>
<defs>
<linearGradient id="paint0_linear_368_1296" x1="-0.931655" y1="16.02" x2="34.3867" y2="16.02" gradientUnits="userSpaceOnUse">
<stop offset="0.213483" stop-color="#1A70C5"/>
<stop offset="1" stop-color="#2647B8"/>
</linearGradient>
</defs>
</svg>
