<svg width="32" height="32" viewBox="0 0 32 32" fill="none" xmlns="http://www.w3.org/2000/svg">
<path d="M19.0625 4.31265C19.1221 4.34601 19.1817 4.37936 19.2431 4.41373C19.4813 4.54746 19.7191 4.6818 19.9564 4.81715C20.3845 5.06127 20.816 5.298 21.25 5.5314C21.7429 5.79664 22.2323 6.06707 22.7187 6.3439C23.2749 6.66033 23.8354 6.96773 24.3986 7.27142C24.9024 7.54318 25.4034 7.81978 25.9032 8.09885C26.1562 8.23987 26.4095 8.3803 26.6628 8.52078C26.8069 8.60082 26.951 8.68098 27.095 8.76126C27.4568 8.96291 27.8192 9.16307 28.1836 9.36001C28.2532 9.39802 28.3228 9.43603 28.3945 9.47519C28.5252 9.54654 28.6563 9.61728 28.7877 9.68722C29.5181 10.0883 30.0332 10.5574 30.332 11.34C30.4686 12.0477 30.3271 12.6405 29.9307 13.2375C29.6351 13.5819 29.2886 13.8165 28.8906 14.0275C28.7904 14.0819 28.6902 14.1363 28.5901 14.1908C28.5357 14.2202 28.4813 14.2496 28.4253 14.2798C28.0985 14.4575 27.7741 14.6394 27.4492 14.8205C26.6656 15.2561 25.8808 15.6894 25.0956 16.1221C24.7832 16.2943 24.4708 16.4667 24.1585 16.6391C23.9662 16.7452 23.7739 16.8513 23.5815 16.9574C23.5447 16.9777 23.5079 16.998 23.47 17.0189C23.4338 17.0389 23.3975 17.0589 23.3601 17.0795C23.0893 17.2288 22.8186 17.3784 22.5481 17.5282C22.4331 17.5918 22.3181 17.6553 22.2031 17.7189C22.151 17.7478 22.0989 17.7768 22.0451 17.8066C21.6946 18.0002 21.6946 18.0002 21.625 18.0002C21.6244 17.9646 21.6238 17.929 21.6232 17.8923C21.6198 17.729 21.6146 17.5658 21.6094 17.4025C21.6085 17.3465 21.6076 17.2906 21.6067 17.2329C21.6047 17.178 21.6027 17.123 21.6006 17.0663C21.5993 17.0162 21.598 16.9662 21.5966 16.9146C21.5023 16.4601 21.1775 16.1505 20.8598 15.8357C20.8146 15.7902 20.7695 15.7447 20.7229 15.6978C20.5744 15.5485 20.4252 15.3998 20.2759 15.2511C20.172 15.1471 20.0682 15.0431 19.9644 14.9391C19.747 14.7215 19.5294 14.5042 19.3115 14.2872C19.0325 14.0093 18.7543 13.7305 18.4764 13.4514C18.2622 13.2366 18.0477 13.0222 17.8329 12.808C17.7302 12.7054 17.6276 12.6026 17.5251 12.4997C17.3818 12.3559 17.2379 12.2128 17.0939 12.0698C17.0518 12.0273 17.0097 11.9849 16.9663 11.9411C16.6726 11.6512 16.4272 11.4573 16.0039 11.4103C15.7159 11.4224 15.5448 11.5191 15.3125 11.6877C15.0998 11.9209 15.1013 12.1548 15.094 12.4567C15.1757 12.9007 15.4797 13.1886 15.7992 13.4804C15.8865 13.5619 15.9737 13.6433 16.0608 13.7248C16.1068 13.7675 16.1527 13.8101 16.2001 13.8541C16.4456 14.0832 16.6875 14.3162 16.9299 14.5486C17.2372 14.8432 17.5454 15.1365 17.8587 15.4247C19.787 17.2025 19.787 17.2025 19.8332 18.1539C19.8164 18.4868 19.7749 18.8033 19.6875 19.1252C19.4487 19.2544 19.2098 19.3833 18.9707 19.512C18.8896 19.5556 18.8086 19.5994 18.7276 19.6432C17.4355 20.3424 16.2422 20.7362 14.7624 20.3549C13.956 20.1066 13.2057 19.6319 12.4757 19.2174C12.1554 19.0364 11.8334 18.8584 11.5117 18.6798C11.4044 18.6202 11.4044 18.6202 11.295 18.5594C10.4685 18.1003 9.6405 17.644 8.81249 17.1877C8.50779 17.0197 8.20309 16.8518 7.89843 16.6837C7.86086 16.663 7.82328 16.6423 7.78457 16.621C7.17218 16.2832 6.56065 15.9439 5.9495 15.6039C5.57829 15.3975 5.20676 15.1916 4.83471 14.9867C4.7946 14.9646 4.75449 14.9425 4.71317 14.9198C4.52066 14.8137 4.32811 14.7078 4.13549 14.602C3.76546 14.3983 3.39622 14.1932 3.02856 13.9853C2.95869 13.9458 2.88882 13.9064 2.81684 13.8658C2.21718 13.5043 1.8198 13.031 1.64745 12.3395C1.55959 11.7455 1.62788 11.1745 1.98046 10.6759C2.41297 10.1606 2.92253 9.84972 3.51171 9.53531C3.59198 9.49184 3.67221 9.44831 3.7524 9.40471C3.9187 9.31437 4.08516 9.22432 4.25173 9.13449C4.60291 8.94482 4.95216 8.75168 5.30142 8.55851C5.41467 8.49591 5.52796 8.43339 5.64127 8.37089C6.14681 8.09205 6.65167 7.812 7.15624 7.5314C7.96444 7.08194 8.77403 6.63506 9.58391 6.18866C9.84912 6.04247 10.1143 5.89619 10.3794 5.74989C10.5674 5.64614 10.7554 5.54242 10.9435 5.43877C11.3316 5.22483 11.7193 5.01036 12.1067 4.79507C12.5493 4.54915 12.9929 4.305 13.4375 4.06265C13.4906 4.03361 13.5437 4.00456 13.5984 3.97464C15.5708 2.90521 17.1904 3.26353 19.0625 4.31265Z" fill="url(#paint0_linear_368_1289)"/>
<path d="M5.62501 16.875C5.87293 16.9555 6.09642 17.0427 6.32521 17.168C6.38586 17.201 6.44651 17.234 6.509 17.268C6.6051 17.321 6.6051 17.321 6.70314 17.375C6.77022 17.4117 6.83731 17.4483 6.90643 17.4861C7.1045 17.5945 7.30231 17.7034 7.50001 17.8125C7.55038 17.8403 7.60074 17.8681 7.65263 17.8967C7.92443 18.0468 8.19569 18.1979 8.46681 18.3492C9.57713 18.9687 10.6892 19.5849 11.8032 20.1977C12.042 20.3291 12.2804 20.4613 12.5186 20.5938C14.1356 21.4905 15.7162 22.0179 17.5625 21.5C18.1326 21.3258 18.6491 21.053 19.1706 20.7689C19.2196 20.7423 19.2686 20.7157 19.3191 20.6882C19.363 20.664 19.407 20.6398 19.4522 20.6149C19.5625 20.5625 19.5625 20.5625 19.6875 20.5625C19.6875 22.3569 19.6875 24.1512 19.6875 26C20.6466 25.9691 20.6466 25.9691 21.625 25.9375C21.625 23.7925 21.625 21.6475 21.625 19.4375C23.1209 18.5827 23.1209 18.5827 23.6992 18.2734C24.1513 18.0301 24.6023 17.7852 25.0508 17.5352C25.0962 17.5099 25.1415 17.4846 25.1883 17.4586C25.3857 17.3487 25.5829 17.2386 25.78 17.1282C25.8423 17.0936 25.9046 17.059 25.9688 17.0234C26.021 16.9943 26.0732 16.9651 26.127 16.9351C26.25 16.875 26.25 16.875 26.375 16.875C26.3794 17.4526 26.3827 18.0302 26.3847 18.6078C26.3857 18.8761 26.387 19.1444 26.3892 19.4128C26.3912 19.6725 26.3923 19.9323 26.3928 20.192C26.3931 20.2903 26.3938 20.3886 26.3948 20.4868C26.4108 22.0796 25.9881 23.4814 24.8577 24.6467C23.9975 25.4595 22.8818 26.0058 21.6875 26C21.6888 26.0586 21.6901 26.1172 21.6915 26.1776C21.6958 26.3964 21.6989 26.6151 21.7012 26.8339C21.7025 26.9283 21.7042 27.0228 21.7064 27.1172C21.7094 27.2535 21.7108 27.3896 21.7119 27.5259C21.7132 27.6077 21.7145 27.6895 21.7159 27.7738C21.6736 28.1107 21.5238 28.299 21.2734 28.5195C20.9807 28.7276 20.7267 28.7173 20.375 28.6875C20.0295 28.5659 19.8426 28.3752 19.6814 28.0485C19.6123 27.836 19.6109 27.6578 19.6128 27.4343C19.613 27.3932 19.6132 27.352 19.6133 27.3096C19.614 27.179 19.6156 27.0485 19.6172 26.918C19.6178 26.8291 19.6184 26.7402 19.6189 26.6512C19.6203 26.4342 19.6224 26.2171 19.625 26C19.5757 26.0002 19.5264 26.0005 19.4755 26.0007C18.2714 26.0062 17.0673 26.0104 15.8631 26.013C15.2808 26.0142 14.6984 26.016 14.1161 26.0189C13.6081 26.0214 13.1002 26.023 12.5922 26.0235C12.3236 26.0238 12.055 26.0246 11.7864 26.0264C11.5328 26.0281 11.2792 26.0286 11.0255 26.0283C10.9332 26.0283 10.8409 26.0288 10.7486 26.0298C9.28334 26.0444 8.08353 25.5191 7.01759 24.5298C6.08102 23.5672 5.6156 22.2952 5.61792 20.9619C5.61791 20.9173 5.6179 20.8728 5.61789 20.8268C5.61793 20.6814 5.61842 20.536 5.61891 20.3906C5.61903 20.289 5.61911 20.1875 5.61918 20.0859C5.61941 19.82 5.62003 19.5541 5.62072 19.2882C5.62136 19.0162 5.62165 18.7443 5.62196 18.4724C5.62263 17.9399 5.62369 17.4075 5.62501 16.875Z" fill="url(#paint1_linear_368_1289)"/>
<defs>
<linearGradient id="paint0_linear_368_1289" x1="-4.23599" y1="11.9282" x2="37.9703" y2="11.9282" gradientUnits="userSpaceOnUse">
<stop offset="0.213483" stop-color="#1A70C5"/>
<stop offset="1" stop-color="#2647B8"/>
</linearGradient>
<linearGradient id="paint1_linear_368_1289" x1="1.39392" y1="22.7979" x2="31.875" y2="22.7979" gradientUnits="userSpaceOnUse">
<stop offset="0.213483" stop-color="#1A70C5"/>
<stop offset="1" stop-color="#2647B8"/>
</linearGradient>
</defs>
</svg>
