<svg width="19" height="19" viewBox="0 0 19 19" fill="none" xmlns="http://www.w3.org/2000/svg">
<path fill-rule="evenodd" clip-rule="evenodd" d="M3.99196 1.67057C5.23988 1.67057 6.25352 2.68556 6.25352 3.93213C6.25352 5.17896 5.23988 6.19368 3.99196 6.19368C2.7454 6.19368 1.73149 5.17896 1.73149 3.93213C1.73149 2.68556 2.7454 1.67057 3.99196 1.67057ZM3.99196 7.26831C5.83173 7.26831 7.32814 5.77189 7.32814 3.93213C7.32814 2.09263 5.83173 0.595947 3.99196 0.595947C2.15355 0.595947 0.65686 2.09263 0.65686 3.93213C0.65686 5.77189 2.15247 7.26831 3.99196 7.26831Z" fill="#0961F5"/>
<path fill-rule="evenodd" clip-rule="evenodd" d="M2.78197 3.93212L2.78116 3.86092C2.78009 3.83056 2.78009 3.83056 2.78627 3.79483C2.81367 3.64895 2.71803 3.50818 2.57322 3.48104C2.42734 3.45364 2.28683 3.54821 2.25835 3.69409C2.24465 3.7548 2.24062 3.81686 2.24385 3.87865L2.24465 3.93212C2.24895 4.07692 2.36743 4.19244 2.51331 4.19244C2.65838 4.19244 2.77686 4.078 2.78197 3.93212Z" fill="#0961F5"/>
<path fill-rule="evenodd" clip-rule="evenodd" d="M2.76205 3.37814C2.85231 3.37814 2.9364 3.33408 2.98557 3.25859C3.21016 2.92277 3.5879 2.72127 3.99196 2.72127C4.14106 2.72127 4.26061 2.60145 4.26061 2.45262C4.26061 2.30459 4.14106 2.18396 3.99196 2.18396C3.4087 2.18396 2.86387 2.47465 2.5396 2.9593C2.48506 3.04232 2.47969 3.14817 2.5259 3.23548C2.57211 3.3236 2.66345 3.37814 2.76205 3.37814Z" fill="#0961F5"/>
<path fill-rule="evenodd" clip-rule="evenodd" d="M11.5145 1.67057C12.7624 1.67057 13.7761 2.68556 13.7761 3.93213C13.7761 5.17896 12.7624 6.19368 11.5145 6.19368C10.2677 6.19368 9.25297 5.17896 9.25297 3.93213C9.25378 2.68556 10.2677 1.67057 11.5145 1.67057ZM11.5145 7.26831C13.3543 7.26831 14.8507 5.77189 14.8507 3.93213C14.8507 2.09263 13.3543 0.595947 11.5145 0.595947C9.67476 0.595947 8.17834 2.09263 8.17834 3.93213C8.17915 5.77189 9.67584 7.26831 11.5145 7.26831Z" fill="#0961F5"/>
<path fill-rule="evenodd" clip-rule="evenodd" d="M10.2846 3.37814C10.3748 3.37814 10.4587 3.33408 10.5081 3.25859C10.7327 2.92277 11.1104 2.72127 11.5145 2.72127C11.6636 2.72127 11.7831 2.60145 11.7831 2.45262C11.7831 2.30459 11.6636 2.18396 11.5145 2.18396C10.931 2.18396 10.3864 2.47465 10.0621 2.9593C10.0065 3.04232 10.0011 3.14817 10.0484 3.23548C10.0946 3.3236 10.186 3.37814 10.2846 3.37814Z" fill="#0961F5"/>
<path fill-rule="evenodd" clip-rule="evenodd" d="M17.2255 16.7616C17.151 16.7449 17.0713 16.7197 17.0156 16.7019C13.4014 14.7993 13.2754 14.7961 13.1158 14.7961C12.9678 14.7961 12.8262 14.8506 12.7244 14.9586C12.6226 15.0658 12.5702 15.1969 12.5796 15.3449L12.6583 16.6442C12.651 17.0608 12.3077 17.3295 11.8711 17.3295H1.8943C1.43785 17.3295 1.07463 17.1363 1.07463 16.7197V9.6967C1.07463 9.2424 1.47439 8.73356 1.8943 8.73356V8.73249H11.8711C12.2932 8.73249 12.65 9.15428 12.6583 9.59192L12.5796 10.7514C12.5691 10.9005 12.6215 11.0472 12.7222 11.1566C12.8241 11.2657 12.9667 11.3277 13.1158 11.3277C13.291 11.3277 13.3383 11.3277 17.0481 9.34207C17.1215 9.30741 17.1771 9.28646 17.2182 9.27491C17.2244 9.32326 17.2287 9.39365 17.2265 9.4995L17.2255 16.7616ZM17.961 8.45846C17.7848 8.279 17.5656 8.18255 17.298 8.18255C17.0807 8.18255 16.8467 8.24031 16.5621 8.37759C15.6167 8.8824 14.6689 9.38103 13.7192 9.87616L13.7319 9.67467C13.7329 9.66231 13.734 9.62228 13.734 9.60858C13.734 8.5635 12.8987 7.65894 11.8711 7.65894H1.8943C0.884687 7.65894 0 8.65162 0 9.6967V16.7197C0 17.725 0.85003 18.4041 1.8943 18.4041H11.8711C12.9071 18.4041 13.7192 17.6664 13.7329 16.6525C13.7319 16.6546 13.7319 16.6554 13.7319 16.6536L13.7047 16.2065C14.4183 16.5644 15.5276 17.1396 16.5549 17.6809C16.5842 17.6965 16.6116 17.7105 16.643 17.7199C16.9232 17.8058 17.1457 17.8657 17.3609 17.8668C17.744 17.8636 17.9758 17.6769 18.0881 17.5205C18.2224 17.3357 18.2687 17.0963 18.2687 16.7731V9.51643C18.2687 9.30231 18.2958 8.79858 17.961 8.45846Z" fill="#0961F5"/>
<path fill-rule="evenodd" clip-rule="evenodd" d="M13.7319 16.6534L13.733 16.6367C13.733 16.6429 13.7319 16.648 13.7319 16.6534Z" fill="#0961F5"/>
<path fill-rule="evenodd" clip-rule="evenodd" d="M17.3682 17.8679L17.361 17.8668L17.3524 17.8679H17.3682Z" fill="#0961F5"/>
<path fill-rule="evenodd" clip-rule="evenodd" d="M4.86725 9.26978H2.58582C2.04636 9.26978 1.61194 9.93497 1.61194 10.4325V11.7978C1.61194 11.9459 1.73149 12.0651 1.8806 12.0651C2.02863 12.0651 2.14925 11.9459 2.14925 11.7965V10.4312C2.14925 10.1816 2.3897 9.80816 2.58582 9.80816H4.86725C5.01636 9.80816 5.13591 9.68727 5.13591 9.53843C5.13591 9.3904 5.01636 9.26978 4.86725 9.26978Z" fill="#0961F5"/>
<path fill-rule="evenodd" clip-rule="evenodd" d="M6.21053 9.27087H5.94187C5.79384 9.27087 5.67322 9.39043 5.67322 9.53953C5.67322 9.68729 5.79384 9.80819 5.94187 9.80819H6.21053C6.35964 9.80819 6.47919 9.68729 6.47919 9.53953C6.47919 9.39043 6.35964 9.27087 6.21053 9.27087Z" fill="#0961F5"/>
</svg>
