<svg width="68" height="68" viewBox="0 0 68 68" fill="none" xmlns="http://www.w3.org/2000/svg">
<g filter="url(#filter0_d_1_3680)">
<circle cx="33" cy="31" r="26" fill="#F5F9FF"/>
</g>
<path d="M27.9 39.6C29.4 40.5 31.2 41 33 41C38.5 41 43 36.5 43 31C43 25.5 38.5 21 33 21C27.5 21 23 25.5 23 31C23 32.8 23.5 34.5 24.3 36L23.4404 39.306C23.2457 40.0549 23.9389 40.7317 24.683 40.5191L27.9 39.6Z" stroke="#0961F5" stroke-width="1.5" stroke-miterlimit="10" stroke-linecap="round" stroke-linejoin="round"/>
<path d="M37.5 33.8485C37.5 34.0105 37.4639 34.177 37.3873 34.339C37.3107 34.501 37.2116 34.654 37.0809 34.798C36.86 35.041 36.6167 35.2165 36.3418 35.329C36.0714 35.4415 35.7784 35.5 35.4629 35.5C35.0033 35.5 34.512 35.392 33.9937 35.1715C33.4755 34.951 32.9572 34.654 32.4434 34.2805C31.9251 33.9025 31.4339 33.484 30.9652 33.0205C30.501 32.5525 30.0819 32.062 29.7078 31.549C29.3383 31.036 29.0408 30.523 28.8245 30.0145C28.6082 29.5015 28.5 29.011 28.5 28.543C28.5 28.237 28.5541 27.9445 28.6622 27.6745C28.7704 27.4 28.9417 27.148 29.1805 26.923C29.469 26.6395 29.7844 26.5 30.1179 26.5C30.2441 26.5 30.3703 26.527 30.483 26.581C30.6002 26.635 30.7038 26.716 30.7849 26.833L31.8305 28.3045C31.9116 28.417 31.9702 28.5205 32.0108 28.6195C32.0513 28.714 32.0739 28.8085 32.0739 28.894C32.0739 29.002 32.0423 29.11 31.9792 29.2135C31.9206 29.317 31.835 29.425 31.7268 29.533L31.3843 29.8885C31.3348 29.938 31.3122 29.9965 31.3122 30.0685C31.3122 30.1045 31.3167 30.136 31.3257 30.172C31.3393 30.208 31.3528 30.235 31.3618 30.262C31.4429 30.4105 31.5826 30.604 31.7809 30.838C31.9837 31.072 32.2 31.3105 32.4344 31.549C32.6778 31.7875 32.9121 32.008 33.151 32.2105C33.3853 32.4085 33.5791 32.5435 33.7323 32.6245C33.7549 32.6335 33.7819 32.647 33.8135 32.6605C33.8495 32.674 33.8856 32.6785 33.9261 32.6785C34.0028 32.6785 34.0613 32.6515 34.1109 32.602L34.4534 32.2645C34.5661 32.152 34.6743 32.0665 34.7779 32.0125C34.8816 31.9495 34.9852 31.918 35.0979 31.918C35.1835 31.918 35.2737 31.936 35.3728 31.9765C35.472 32.017 35.5756 32.0755 35.6883 32.152L37.18 33.2095C37.2972 33.2905 37.3783 33.385 37.4279 33.4975C37.473 33.61 37.5 33.7225 37.5 33.8485Z" stroke="#0961F5" stroke-width="1.5" stroke-miterlimit="10"/>
<defs>
<filter id="filter0_d_1_3680" x="0" y="0" width="68" height="68" filterUnits="userSpaceOnUse" color-interpolation-filters="sRGB">
<feFlood flood-opacity="0" result="BackgroundImageFix"/>
<feColorMatrix in="SourceAlpha" type="matrix" values="0 0 0 0 0 0 0 0 0 0 0 0 0 0 0 0 0 0 127 0" result="hardAlpha"/>
<feOffset dx="1" dy="3"/>
<feGaussianBlur stdDeviation="4"/>
<feColorMatrix type="matrix" values="0 0 0 0 0 0 0 0 0 0 0 0 0 0 0 0 0 0 0.1 0"/>
<feBlend mode="normal" in2="BackgroundImageFix" result="effect1_dropShadow_1_3680"/>
<feBlend mode="normal" in="SourceGraphic" in2="effect1_dropShadow_1_3680" result="shape"/>
</filter>
</defs>
</svg>
